<?xml version="1.0" encoding="UTF-8"?>
<svg xmlns="http://www.w3.org/2000/svg" id="Layer_1" data-name="Layer 1" viewBox="0 0 512 512" width="512" height="512"><path d="M471.533,312.628H416V250h3.315a31.248,31.248,0,0,0,31.213-31.213V180.307a31.248,31.248,0,0,0-31.213-31.213H416V128.641a80.778,80.778,0,0,0-4.6-26.94C400.417,70.576,370.4,49.669,336.7,49.669h-.017l-17.676,0V32.924A27.955,27.955,0,0,0,291.078,5H220.922A27.955,27.955,0,0,0,193,32.924V49.7l-17.722,0c-33.735.007-63.755,20.938-74.7,52.083A80.781,80.781,0,0,0,96,128.642v20.452H92.687a31.248,31.248,0,0,0-31.213,31.213v38.478A31.248,31.248,0,0,0,92.687,250H96v62.63H40.467a6,6,0,0,0-6,6v99.863a44.711,44.711,0,0,0,44.661,44.661H96.376A49.911,49.911,0,0,0,145.85,507h220.3a49.911,49.911,0,0,0,49.474-43.848h17.248a44.711,44.711,0,0,0,44.661-44.661V318.628A6,6,0,0,0,471.533,312.628ZM96,451.152H79.128a32.7,32.7,0,0,1-32.661-32.661V357.514H96Zm0-105.638H46.467V324.628H96ZM205,32.924A15.942,15.942,0,0,1,220.922,17h70.156A15.942,15.942,0,0,1,307,32.924V49.675L205,49.7Zm-97,95.718a68.809,68.809,0,0,1,3.894-22.877c9.26-26.348,34.731-44.055,63.383-44.061l161.4-.035h.015c28.624,0,54.1,17.69,63.384,44.023A68.829,68.829,0,0,1,404,128.642v20.452H358.067a44.115,44.115,0,0,0-43.653-37.776H314.4l-116.829.026a44.169,44.169,0,0,0-43.631,37.75H108Zm58.113,20.452a32.159,32.159,0,0,1,31.464-25.75l116.828-.026h.007A32.128,32.128,0,0,1,345.9,149.094Zm162.7,12V238H183.182v-76.9Zm-157.637,0V238H146.714v-76.9Zm174.7,88.9a32.159,32.159,0,0,1-31.464,25.75l-116.828.025h-.007A32.126,32.126,0,0,1,166.1,250Zm-5.066-12v-76.9h24.469V238ZM92.687,238a19.235,19.235,0,0,1-19.213-19.213V180.307a19.234,19.234,0,0,1,19.213-19.213h42.027V238ZM337.7,374.249,256,401.5,174.3,374.4v-21.39a15.925,15.925,0,0,1,15.924-15.924H321.772A15.925,15.925,0,0,1,337.7,353.013Zm66.3,82.9A37.891,37.891,0,0,1,366.15,495H349.7V353.013a27.924,27.924,0,0,0-27.924-27.924H190.228A27.924,27.924,0,0,0,162.3,353.013v54.81a6,6,0,0,0,12,0V387.046l79.807,26.472a6,6,0,0,0,3.787,0L337.7,386.9V495H174.3V457.823a6,6,0,0,0-12,0V495H145.85A37.891,37.891,0,0,1,108,457.152V250h45.931a44.115,44.115,0,0,0,43.653,37.775h.009l116.829-.025A44.169,44.169,0,0,0,358.055,250H404ZM377.288,238v-76.9h42.025a19.234,19.234,0,0,1,19.213,19.213v38.478A19.235,19.235,0,0,1,419.313,238Zm88.245,180.493a32.7,32.7,0,0,1-32.661,32.661H416V357.514h49.535Zm0-72.977H416V324.628h49.535Z"/><path d="M136,287a6,6,0,0,0-6,6v2a6,6,0,0,0,12,0v-2A6,6,0,0,0,136,287Z"/><path d="M136,315a6,6,0,0,0-6,6v92a6,6,0,0,0,12,0V321A6,6,0,0,0,136,315Z"/></svg>
