<?xml version="1.0" encoding="iso-8859-1"?>
<!-- Generator: Adobe Illustrator 19.0.0, SVG Export Plug-In . SVG Version: 6.00 Build 0)  -->
<svg version="1.1" id="Capa_1" xmlns="http://www.w3.org/2000/svg" xmlns:xlink="http://www.w3.org/1999/xlink" x="0px" y="0px"
	 viewBox="0 0 512 512" style="enable-background:new 0 0 512 512;" xml:space="preserve">
<g>
	<g>
		<path d="M364.155,317.486H147.776c-6.894,0-12.502,5.608-12.502,12.502v91.821c0,23.145,18.829,41.974,41.974,41.974h157.436
			c23.145,0,41.973-18.829,41.973-41.974v-91.821C376.656,323.094,371.049,317.486,364.155,317.486z M361.654,421.808
			c0,14.873-12.1,26.973-26.971,26.973H177.247c-14.872,0-26.972-12.1-26.972-26.973v-59.222H308.14v8.514
			c-6.661,0.265-12.002,5.752-12.002,12.477v30.977c0,6.894,5.608,12.502,12.502,12.502h12.669c6.894,0,12.502-5.608,12.502-12.502
			v-30.978c0-6.269-4.643-11.459-10.668-12.352v-8.638h38.512V421.808z M311.141,412.054v-25.977h7.668v25.977H311.141z
			 M361.654,347.584H150.277v-15.097h211.378V347.584z"/>
	</g>
</g>
<g>
	<g>
		<path d="M477.536,404.853c-4.143,0-7.501,3.357-7.501,7.501v36.412c0,6.728-5.473,12.201-12.201,12.201h-15.719v-155.58h15.719
			c6.728,0,12.201,5.473,12.201,12.2v48.762c-0.001,4.143,3.357,7.501,7.5,7.501c4.143,0,7.501-3.357,7.501-7.501v-48.761
			c0-14.999-12.203-27.202-27.203-27.202h-15.788V38.243c0-12.655-10.295-22.95-22.95-22.95h-48.936
			c-12.655,0-22.95,10.295-22.95,22.95v34.55c-8.788-4.966-18.013-9.245-27.611-12.748C318.529,26.755,291.134,0,257.59,0h-3.248
			c-33.544,0-60.94,26.755-62.011,60.044c-9.597,3.503-18.822,7.782-27.611,12.748V38.243c0-12.655-10.295-22.95-22.95-22.95H92.833
			c-12.655,0-22.95,10.295-22.95,22.95v31.233c0,4.144,3.358,7.501,7.501,7.501c4.143,0,7.501-3.357,7.501-7.501V38.243
			c0-4.383,3.565-7.948,7.948-7.948h48.936c4.383,0,7.948,3.565,7.948,7.948v43.995c-28.39,19.816-51.02,47.333-64.832,79.503
			v-44.759c0-4.144-3.358-7.501-7.501-7.501c-4.143,0-7.501,3.357-7.501,7.501v173.403H54.165c-15,0-27.203,12.203-27.203,27.202
			v131.179c0,15,12.203,27.203,27.203,27.203h15.719v4.314c0,17.489,14.229,31.718,31.718,31.718h308.726
			c17.489,0,31.718-14.229,31.718-31.718v-4.314h15.788c15,0,27.203-12.203,27.203-27.203v-36.412
			C485.038,408.21,481.679,404.853,477.536,404.853z M69.884,460.966H54.165c-6.728,0-12.201-5.474-12.201-12.201V317.587
			c0-6.728,5.473-12.2,12.201-12.2h15.719V460.966z M362.212,38.243c0-4.383,3.565-7.948,7.948-7.948h48.936
			c4.383,0,7.948,3.565,7.948,7.948v123.498c-13.813-32.17-36.443-59.687-64.832-79.503V38.243z M254.341,15.002h3.248
			c23.607,0,43.205,17.475,46.55,40.168c-15.372-4.124-31.519-6.336-48.174-6.336s-32.802,2.212-48.174,6.336
			C211.137,32.477,230.734,15.002,254.341,15.002z M427.045,480.282c0,9.217-7.499,16.716-16.716,16.716H101.602
			c-9.217,0-16.716-7.499-16.716-16.716v-11.815V297.885v-62.971c0-94.333,76.746-171.079,171.079-171.079
			s171.079,76.745,171.079,171.079V480.282z"/>
	</g>
</g>
<g>
	<g>
		<path d="M319.262,192.519l-54.455-54.454c-4.876-4.875-12.806-4.873-17.679,0l-54.455,54.455
			c-4.873,4.874-4.873,12.805,0.001,17.68l54.455,54.454c2.437,2.437,5.638,3.654,8.839,3.654c3.201,0,6.403-1.219,8.84-3.654
			l54.454-54.454c0-0.001,0.001-0.001,0.001-0.002C324.134,205.325,324.134,197.395,319.262,192.519z M255.967,252.278
			l-50.919-50.918l50.919-50.919l50.919,50.919L255.967,252.278z"/>
	</g>
</g>
<g>
	<g>
		<path d="M242.966,181.524c-4.143,0-7.501,3.357-7.501,7.501v24.67c0,4.144,3.358,7.501,7.501,7.501
			c4.143,0,7.501-3.357,7.501-7.501v-24.67C250.467,184.881,247.108,181.524,242.966,181.524z"/>
	</g>
</g>
<g>
	<g>
		<path d="M268.969,181.524c-4.143,0-7.501,3.357-7.501,7.501v24.67c0,4.144,3.358,7.501,7.501,7.501
			c4.143,0,7.501-3.357,7.501-7.501v-24.67C276.47,184.881,273.112,181.524,268.969,181.524z"/>
	</g>
</g>
<g>
</g>
<g>
</g>
<g>
</g>
<g>
</g>
<g>
</g>
<g>
</g>
<g>
</g>
<g>
</g>
<g>
</g>
<g>
</g>
<g>
</g>
<g>
</g>
<g>
</g>
<g>
</g>
<g>
</g>
</svg>
