<?xml version="1.0" encoding="UTF-8" standalone="no"?>
<svg
   xmlns:dc="http://purl.org/dc/elements/1.1/"
   xmlns:cc="http://creativecommons.org/ns#"
   xmlns:rdf="http://www.w3.org/1999/02/22-rdf-syntax-ns#"
   xmlns:svg="http://www.w3.org/2000/svg"
   xmlns="http://www.w3.org/2000/svg"
   xmlns:sodipodi="http://sodipodi.sourceforge.net/DTD/sodipodi-0.dtd"
   xmlns:inkscape="http://www.inkscape.org/namespaces/inkscape"
   id="Capa_1"
   enable-background="new 0 0 512 512"
   height="512"
   viewBox="0 0 512 512"
   width="512"
   version="1.1"
   sodipodi:docname="backpack_add.svg"
   inkscape:version="1.0.2 (1.0.2+r75+1)">
  <metadata
     id="metadata17">
    <rdf:RDF>
      <cc:Work
         rdf:about="">
        <dc:format>image/svg+xml</dc:format>
        <dc:type
           rdf:resource="http://purl.org/dc/dcmitype/StillImage" />
        <dc:title></dc:title>
      </cc:Work>
    </rdf:RDF>
  </metadata>
  <defs
     id="defs15">
    <style
       id="style592">.cls-1{fill:none;}</style>
    <clipPath
       clipPathUnits="userSpaceOnUse"
       id="clipPath691">
      <path
         id="path693"
         style="fill:#ff0000;fill-opacity:1;fill-rule:nonzero;stroke:none"
         d="M 32.835938,0 V 512 H 479.16406 v -40.80469 c -0.63492,0.15369 -1.27213,0.29696 -1.91015,0.4375 -5.02335,1.94468 -9.81153,3.17025 -15.26172,4.54492 -2.47665,0.62468 -4.95523,1.24468 -7.4375,1.84766 -0.82182,0.82665 -1.66335,1.62384 -3.09571,1.37109 -0.11568,-0.18505 -0.24075,-0.36525 -0.35937,-0.54882 -0.9325,0.21734 -1.8662,0.42672 -2.80078,0.63476 -0.36365,0.28355 -0.73354,0.55866 -1.12891,0.79492 -0.85527,0.51108 -1.78547,0.89533 -2.71875,1.24414 -1.43499,0.53631 -3.32339,2.52023 -4.375,1.40625 -0.48572,-0.51452 -0.92219,-1.06392 -1.33203,-1.63281 -0.32874,0.0551 -0.66183,0.11073 -0.99609,0.16602 -0.19136,2.23439 -0.49144,4.43859 -1.33985,6.49023 -0.52165,1.26145 -2.52598,1.07079 -3.85351,1.38867 -1.20366,0.28823 -2.45753,0.29671 -3.68946,0.41602 -4.40901,0.427 -8.75312,0.76385 -13.17773,0.27344 -0.48589,-0.0821 -1.53054,-0.25694 -2.54297,-0.42969 -1.66632,2.18604 -2.80441,1.81744 -7.67383,0.32227 -0.43497,-0.13374 -0.87971,-0.23766 -1.30468,-0.4004 -1.78262,-0.68263 -2.23616,-0.90679 -3.72852,-1.7832 -0.37994,-0.22312 -0.74968,-0.46526 -1.12305,-0.69922 -0.24034,-0.15061 -0.98505,-0.55268 -0.71875,-0.45508 0.6138,0.22503 1.18106,0.5611 1.77149,0.8418 0.21703,-0.0785 0.38497,-0.13372 0.59179,-0.20703 -3.17772,-1.24981 -5.36264,-4.25412 -5.03906,-11.47656 0.0747,-1.66854 1.82874,-2.12327 3.83594,-2.39453 0.91692,-1.39272 2.45942,-2.58591 4.58594,-3.36524 -2.38107,-1.29742 -4.60857,-2.77743 -5.63672,-5.13476 -0.52877,-1.21235 -0.46165,-2.29252 -0.0547,-3.25977 -1.70855,0.0922 -3.4167,0.1947 -5.12109,0.34375 -0.5904,0.0516 -2.15295,0.70557 -3.23828,0.99805 -0.29044,2.48357 -0.88894,4.93463 -1.80664,7.60156 -0.39286,1.14161 -0.85659,2.31471 -1.65235,3.22266 -2.15471,2.45852 -4.73429,4.50908 -7.10156,6.76367 -1.28375,0.1887 -2.68559,0.39129 -3.97266,0.11328 -0.54085,-0.11682 -1.06666,-0.28608 -1.59179,-0.46289 -0.23696,-0.0589 -0.42177,-0.10123 -0.66016,-0.17578 -0.46619,-0.0459 -0.94029,-0.0981 -1.34375,-0.15821 -0.95593,0.61101 -1.92479,1.20584 -2.86523,1.8379 -1.08108,0.14296 -2.57509,0.43621 -3.5918,0.13671 -1.54587,-0.4554 -2.97781,-1.22959 -4.45703,-1.86914 -0.0513,-0.0222 -0.1418,-0.0579 -0.125,-0.11133 0.0158,-0.0503 0.0879,0.0543 0.13281,0.082 2.45801,-0.86495 4.50051,-1.55753 6.3418,-2.16797 -0.0541,-0.0413 -0.0995,-0.087 -0.15235,-0.12891 -2.75491,0.94083 -5.58869,1.62618 -8.46484,1.81055 -1.02763,0.0659 -1.88162,-6.28807 -1.91992,-6.50586 -0.0178,-0.21975 -0.0313,-0.35616 -0.0488,-0.56445 -1.24969,0.3119 -2.56429,0.54908 -3.80274,0.26562 -2.12295,-0.4859 -4.57518,-2.05079 -5.77734,-4.1875 -1.38193,0.11392 -2.06239,-0.094 -3.05664,-0.59375 -0.90045,-0.0762 -1.78806,-0.37362 -2.66211,-0.61719 -0.68197,-0.19005 -1.30978,-0.53618 -1.96484,-0.80468 -5.03578,-2.43408 -10.53254,-5.05567 -10.33203,-11.76563 -0.0178,-1.5072 -0.16485,-2.99634 -0.21485,-4.50195 -0.0249,-0.74463 -0.29164,-1.54006 -0.0215,-2.23438 2.40555,-6.18093 1.56786,-5.39519 4.58398,-7.25976 2.89065,-0.78919 3.38346,-1.17038 5.4375,-1.08008 0.0801,-3.7e-4 0.16017,3.6e-4 0.24024,0 0.0187,-0.18337 0.0205,-0.36944 0.0508,-0.55078 0.11482,-0.68779 1.02692,-0.97495 1.65429,-1.2793 2.00887,-0.97459 3.14553,-1.22072 5.19141,-1.03711 0.10107,0.005 0.19098,0.0226 0.28906,0.0312 0.69489,-0.76364 1.61578,-1.38699 2.73243,-1.81836 -0.0552,-10.42489 -0.11691,-20.85063 -0.0293,-31.27539 -5e-5,-0.079 -0.005,-0.31523 0,-0.23633 0.0702,1.08917 -0.046,-0.93399 -0.008,-0.99609 1.29874,-2.07788 2.66543,-4.11264 4.01171,-6.16016 0.0361,0.22708 0.14059,0.8256 -0.61523,-3.67578 -0.12454,-0.74171 -0.42613,-2.32721 -0.39453,-3.17773 0.0352,-0.94655 0.22463,-2.08452 0.375,-3.06055 0.0288,-3.2405 -0.084,-6.48095 -0.10742,-9.7207 -0.0916,0.77451 -0.0233,-0.0672 0.0254,-0.60938 -0.0128,-0.0449 -0.007,-0.52929 -0.008,-0.69726 -0.002,-1.7343 -2e-5,-3.46883 0,-5.20313 -0.0521,-1.67389 0.071,-2.97693 0.52929,-4.70117 0.15882,-0.59748 0.36597,-1.19793 0.70508,-1.71484 0.66234,-1.00962 1.43369,-1.95271 2.27148,-2.82227 0.44,-0.45667 1.02228,-0.75133 1.53321,-1.12695 0.0825,-0.0873 0.16922,-0.17256 0.25195,-0.25977 -0.37824,-1.11667 -0.62657,-2.2612 -0.61719,-3.44336 0.007,-0.9426 -0.2463,-1.92668 0.0293,-2.82812 0.4391,-1.4362 1.31453,-2.69664 2.01172,-4.0293 -12.73555,8.12578 -21.84785,-5.13033 -8.67969,-12.66602 1.13543,-0.64974 2.07106,-1.54768 2.94727,-2.5039 0.0187,-0.0204 0.0361,-0.042 0.0547,-0.0625 0.68556,-1.31618 1.45876,-2.70484 2.47461,-3.87695 -0.097,-0.14486 -0.17076,-0.26102 -0.25586,-0.39454 -0.29003,-0.42651 -0.55463,-0.86453 -0.7207,-1.35156 -0.67765,-1.98754 -0.51986,-3.43429 -0.19531,-5.09961 -0.0218,-0.36887 -0.0345,-0.73842 -0.0352,-1.10937 0.86858,-1.8978 1.59383,-3.8678 2.60547,-5.69336 0.23575,-0.4254 0.65916,-0.74107 1.08789,-0.97071 1.29734,-0.69483 2.62125,-1.39711 4.04297,-1.77734 0.37195,-0.0995 0.76512,-0.14997 1.16992,-0.16797 1.11121,-0.0494 2.30027,0.14823 3.37696,0.28907 0.60617,-0.0668 1.0802,-0.0592 1.70507,-0.0547 2.24042,0.11742 4.69785,0.90092 6.48828,2.30469 0.0174,0.0136 0.0554,0.0494 0.0742,0.0645 0.0194,-2.4e-4 0.0412,-0.002 0.0606,-0.002 0.42649,-0.004 1.49897,1.20703 2.11914,1.88281 0.3966,-0.0115 0.80583,-0.0118 1.20508,0.002 0.0275,0.005 0.19871,-0.006 0.60156,-0.008 2.61855,-0.004 4.37919,0.61201 5.58594,1.58789 3.4098,-0.32698 4.85777,-0.50833 8.80273,-0.57227 0.78928,-0.0128 1.57481,0.0909 2.36328,0.12891 0.81033,0.039 1.6209,0.0749 2.43165,0.10352 0.17857,0.007 0.5199,-0.1759 0.53711,0.002 0.002,0.024 -0.0131,0.0426 -0.0176,0.0644 0.37063,-0.37921 0.74526,-0.74053 0.98047,-0.42383 0.007,0.009 0.0127,0.0163 0.0195,0.0254 1.33618,-0.73635 1.508,-0.40575 2.12109,1.41797 0.64121,-1.06098 1.44433,-2.14457 2.46875,-3.23633 2.82835,-3.01424 6.62566,-3.71856 10.40039,-4.72265 0.71639,-0.003 1.17887,-0.48878 1.81836,-0.69336 1.6679,-0.53357 3.52901,-1.13921 5.32227,-0.66211 0.0443,0.0118 0.0849,0.0341 0.1289,0.0469 0.43561,-0.22638 0.83904,-0.39733 1.15821,-0.41406 0.31358,-0.0164 0.54716,0.11426 0.65039,0.47656 0.001,0.005 0.003,0.007 0.004,0.0117 1.86029,0.0534 2.04332,0.30896 1.56446,1.53907 0.14973,0.0783 0.29741,0.16163 0.44921,0.23437 0.18238,0.39785 0.21406,0.45832 0.3418,0.73438 0.31285,-1.30532 1.0309,-2.62799 2.21094,-4.42969 10e-4,-0.002 0.003,-0.004 0.004,-0.006 0.009,-0.0131 0.0148,-0.0239 0.0234,-0.0371 10e-4,-0.002 0.003,-0.004 0.004,-0.006 0.27072,-0.45754 0.6998,-0.97822 1.46289,-1.96094 -0.0114,-0.0262 -0.0394,-0.0897 -0.0449,-0.10547 -0.0383,0.0645 -0.0726,0.13299 -0.11328,0.19532 0.0365,-0.0735 0.0733,-0.14701 0.10937,-0.22071 9.1e-4,0.008 -2.3e-4,0.0136 0.004,0.0254 0.0243,-0.0409 0.0513,-0.0796 0.0859,-0.11132 -0.026,0.0126 -0.057,0.038 -0.0703,0.0449 0.1834,-0.37544 0.36463,-0.75303 0.5586,-1.12305 -0.006,-0.0633 -0.016,-0.1261 -0.0215,-0.18945 -0.0354,-0.41017 0.26966,-0.78193 0.47852,-1.13672 1.5963,-2.71159 3.66823,-4.85811 7.24218,-5.02539 0.54671,-0.0256 1.07973,0.0651 1.60743,0.20703 2.72778,-0.24977 5.21389,0.77048 7.50781,2.37109 1.46003,1.25129 2.56782,2.62707 3.55859,4.14258 3.76734,-0.49801 3.16868,-0.50539 3.73438,3.1875 0.36392,0.11726 0.77638,0.26326 1.20898,0.41797 1.12859,-0.39088 2.45385,-0.78976 3.34961,-0.76367 1.00063,-1.32218 1.97596,-2.66564 3.04883,-3.92969 0.39106,-0.46075 0.74507,-1.10528 1.33789,-1.22266 0.19126,-0.0379 0.38419,-0.0668 0.57617,-0.0996 -3.27138,-5.2646 8.30024,-0.73482 8.36328,-0.7129 -2.78544,0.25314 -5.60925,0.24159 -8.36328,0.7129 0.0243,0.0391 0.0307,0.0673 0.0566,0.10742 2.1313,3.30115 3.96589,5.3748 5.52344,6.66406 0.0234,6e-5 0.0469,-6e-5 0.0703,0 0.0382,-0.003 0.0559,-0.006 0.084,-0.008 0.0153,-8.7e-4 -0.0298,0.005 -0.0449,0.008 -0.013,-3e-5 -0.026,3e-5 -0.0391,0 -0.0293,0.002 -0.0312,0.003 -0.0645,0.006 0.003,0.002 0.005,0.004 0.008,0.006 1.65772,-0.14473 0.40614,-0.12026 5.125,1.33203 0.16174,0.12575 0.37931,0.21543 0.57422,0.32031 1.17345,-0.44527 1.31808,-0.8679 0.63672,1.34766 0.0675,0.32893 0.13408,0.65825 0.19727,0.98828 0.87059,0.26212 1.73237,0.56723 2.59179,0.88281 V 0 Z M 430.32812,306.97852 c 0.004,-0.002 0.01,-0.008 0.0137,-0.01 -0.002,6.5e-4 -0.002,-0.006 -0.004,-0.004 -0.004,0.004 -0.006,0.01 -0.01,0.0137 z m 0.0137,-0.01 c 0.0251,-0.01 0.0233,0.075 0.0352,0.11133 -0.0418,0.0541 -0.05,0.064 -0.0898,0.11523 0.04,0.0918 0.12033,0.30534 0.23633,0.61914 0.16405,-0.0786 0.3294,-0.15157 0.49414,-0.21875 -0.0642,-0.44254 -0.11097,-0.88738 -0.1582,-1.33203 -0.25188,0.52622 -0.41676,0.65278 -0.51758,0.70508 z m -74.47657,22.70898 c 0.0876,0.12887 0.16874,0.26042 0.26172,0.38672 0.0698,-0.0804 0.14658,-0.15417 0.21875,-0.23242 -0.036,-0.13337 -0.0782,-0.26514 -0.10547,-0.40039 -0.008,0.005 -0.0152,0.0102 -0.0234,0.0156 -1.13284,-1.15914 -0.89549,-0.62292 -0.35157,0.23046 z m 0.26172,0.38672 c -0.002,0.002 -0.004,0.005 -0.006,0.008 0.19987,0.29832 0.3943,0.56783 0.59375,0.84765 -0.0211,-0.0504 -0.0383,-0.10179 -0.0586,-0.15234 -0.17831,-0.23361 -0.3558,-0.46744 -0.5293,-0.70313 z m 17.37891,149.92774 c 0.0524,0.005 0.11449,0.0124 0.16797,0.0176 -0.32295,-0.10828 -0.64494,-0.22157 -0.97266,-0.3125 -0.33224,-0.0922 0.18932,0.10247 0.80469,0.29492 z m 0.16797,0.0176 c 0.16342,0.0548 0.32885,0.1032 0.49219,0.1582 0.54758,0.13616 1.02276,0.21578 0.85351,-0.0195 -0.51519,-0.0599 -0.91731,-0.0968 -1.3457,-0.13867 z m 66.76172,-180.23829 c -0.16344,-0.005 -0.13746,0.003 -0.25,0.002 1.1111,0.30848 2.19578,0.85728 3.30664,1.16797 -1.13888,-0.56209 -1.88215,-1.13203 -3.05664,-1.16993 z m -15.07422,13.9961 c -0.0759,0.2006 -0.15264,0.42998 -0.23242,0.66211 0.0919,0.34089 0.20829,0.74467 0.29297,1.0664 0.0995,0.0214 0.19944,0.0404 0.29882,0.0625 0.14558,-0.2504 0.29556,-0.49819 0.44532,-0.74609 -0.26692,-0.34782 -0.50446,-0.67947 -0.80469,-1.04492 z m -57.97266,0.0449 c -0.0111,10e-4 -0.0221,0.004 -0.0332,0.006 0.0475,0.006 0.0995,0.0139 0.14648,0.0195 0.54713,0.003 -0.0751,-0.0304 -0.11328,-0.0254 z m 6.6543,1.60352 c -16.43085,3.47354 -5.72539,0.94453 0.82031,0.71679 -0.26844,-0.24788 -0.53765,-0.49187 -0.82031,-0.71679 z m 5.51953,4.69336 c 0.23154,0.28833 0.43306,0.57494 0.63672,0.86132 0.14819,-0.0641 0.30181,-0.11773 0.45312,-0.17578 -0.28874,-0.1998 -0.64529,-0.4256 -1.08984,-0.68554 z m -24.45117,2.28515 c -0.0202,0.0845 -0.0555,0.16721 -0.0606,0.25391 -0.002,0.0275 -4.6e-4,0.0355 -0.002,0.0625 0.0222,-0.10807 0.0396,-0.20566 0.0625,-0.31641 z m -0.92188,10.89649 c -0.14063,0.16533 -0.27654,0.33629 -0.41211,0.50586 0.12677,-0.14371 0.25462,-0.28613 0.37696,-0.4336 0.0171,-0.0205 0.0525,-0.0926 0.0352,-0.0723 z m 43.56641,7.38086 c -0.0703,0.008 -0.1406,0.0158 -0.21094,0.0234 0.2662,0.58781 0.53822,1.22038 0.81641,1.90039 0.0506,-0.19338 0.0995,-0.38551 0.16797,-0.60937 -0.26185,-0.44846 -0.52796,-0.904 -0.77344,-1.31445 z m -15.40625,3.33789 c -0.0447,0.0331 -0.0965,0.0681 -0.14258,0.10156 0.16117,0.10528 0.31495,0.19145 0.45313,0.24414 -0.12622,-0.14566 -0.20411,-0.22601 -0.31055,-0.3457 z m 15.78906,0.0742 c -0.18423,0.002 -0.36856,0.001 -0.55273,0.006 -0.65512,0.0166 -1.30989,0.0463 -1.96485,0.0684 -0.9742,0.0328 -1.94766,0.0653 -2.92187,0.0977 -0.1762,0.004 -0.35295,0.002 -0.5293,0.006 -1.22412,0.87444 -2.53789,1.70343 -4.2793,2.67969 0.11545,0.53789 0.22454,1.07748 0.30079,1.63671 0.0786,0.57662 0.4918,1.307 0.10547,1.74219 -1.49294,1.68167 -3.25315,3.1111 -4.8418,4.30664 0.79808,7.11856 2.17406,8.78788 -1.25391,8.375 -0.01,0.003 -0.10688,0.0251 -0.11523,0.0273 0.0261,0.82622 -0.0238,1.98146 -0.0899,3.27539 0.37954,0.38063 0.68117,0.67082 0.75782,0.70508 0.34413,0.15382 0.70448,0.24518 1.07031,0.31054 2.99778,-3.72012 8.96132,-9.37524 5.85937,-3.41211 1.58825,0.36915 3.23436,0.54703 4.76563,1.10742 0.13153,0.0481 0.25049,0.11836 0.37109,0.1875 0.78493,-0.0249 1.5686,-0.0147 2.23828,0.34376 0.56181,0.3007 1.09877,0.64039 1.62305,1 -0.003,-4.54895 -0.0153,-7.34385 0.0137,-8.81836 -0.0124,-2.62498 -0.0339,-5.24825 -0.0723,-7.87305 -0.0145,-1.21212 -0.11764,-3.18129 -0.0801,-5.08789 -0.23819,-0.0884 -0.38062,-0.29778 -0.4043,-0.6836 z m -15.60937,0.80469 c 0.33482,0.49739 0.69549,1.0438 0.9082,1.33203 -0.0193,-0.0823 -0.0363,-0.15911 -0.0469,-0.2207 -0.26796,-0.3773 -0.55258,-0.74962 -0.86132,-1.11133 z M 383.39062,346 c 0.0532,0.0748 0.10024,0.13753 0.15235,0.21094 0.0853,-0.0395 0.15353,-0.0978 0.20703,-0.17383 -0.23048,-0.36252 -0.45093,-0.57133 -0.35938,-0.0371 z m 0.0469,0.2207 c 9.8e-4,0.004 0.005,0.0172 0.006,0.0215 0.003,-8.6e-4 0.007,-0.001 0.01,-0.002 -0.006,-0.009 -0.009,-0.0107 -0.0156,-0.0195 z m 2.20312,1.93555 c -0.18387,0.0963 -0.33992,0.18127 -0.5332,0.28125 -0.07,0.3357 -0.15264,0.67383 -0.2539,1.01562 2.50838,1.71374 2.04762,0.51855 0.7871,-1.29687 z m 50.45118,0.2832 c -1.57368,0.94153 -2.86266,1.64064 -3.97071,1.95703 0.0305,3.7731 0.15527,7.53915 0.35157,11.30469 0.18886,-0.19223 0.30549,-0.31108 0.54882,-0.55859 0.38734,-2.03818 0.10495,-3.46009 3.60352,-3.9082 0.3894,-0.48414 0.7608,-0.92425 0.89258,-0.97266 0.0188,-0.007 0.0379,-0.0127 0.0566,-0.0195 0.003,-0.007 0.008,-0.0141 0.0117,-0.0215 -0.88186,-1.22396 -1.49561,-2.99003 -1.69727,-5.51562 -0.0663,-0.83067 0.0175,-1.57864 0.20313,-2.26563 z m 5.83789,0.15235 c -0.0658,0.45443 -0.13457,0.8971 -0.20508,1.33593 0.1934,-0.2538 0.40167,-0.5026 0.59766,-0.75585 -0.1329,-0.19185 -0.26197,-0.38654 -0.39258,-0.58008 z m -57.47657,0.1289 c -0.057,0.0183 -0.10183,0.0361 -0.16601,0.0547 0.0482,0.13321 0.0787,0.2278 0.13672,0.38281 0.0474,0.0341 0.0813,0.0555 0.12695,0.0879 -0.0208,-0.12475 -0.0654,-0.35067 -0.0977,-0.52539 z m -1.27734,14.04883 c -0.57515,0.12321 -0.47049,0.10854 -0.61914,0.14844 0.0247,-0.004 0.0474,-0.002 0.0723,-0.006 0.18589,-0.031 0.73115,-0.18208 0.54687,-0.14258 z m -2.11523,0.26367 c 0.003,0.015 0.006,0.0319 0.01,0.0469 0.0288,-0.0117 0.0685,-0.0322 0.10157,-0.0469 -0.0373,6.7e-4 -0.0742,-6.1e-4 -0.11133,0 z m 0.21875,0.11133 c -0.035,0.004 -0.14332,0.016 -0.19141,0.0215 0.11852,0.53568 0.23183,1.03863 0.33789,1.48437 -0.0486,-0.50213 -0.0942,-1.00405 -0.14648,-1.50586 z m 9.95117,1.13867 c -0.27719,0.0506 -0.0691,0.57343 -0.7168,1.4375 1.03986,-0.32996 2.14041,-0.49064 3.23047,-0.49414 0.021,-6e-5 0.0435,-0.002 0.0644,-0.002 -0.22396,-0.0973 -0.42969,-0.19303 -0.68554,-0.29297 -1.23418,-0.48208 -1.69339,-0.68477 -1.89258,-0.64844 z m 2.31836,1.48242 c -0.11269,0.52412 -0.2252,1.04817 -0.33789,1.57227 0.28591,-0.0116 0.57198,-0.0192 0.85742,-0.041 0.26312,-0.0202 0.69159,-0.27897 1.02148,-0.46876 l 0.0899,-0.45898 c -0.547,-0.19636 -1.08795,-0.39324 -1.63086,-0.60352 z m 1.63086,0.60352 c 0.34774,0.12483 0.70031,0.24985 1.03711,0.38281 -0.0517,-0.0654 -0.11889,-0.13268 -0.18555,-0.19922 -0.27944,-0.0945 -0.5514,-0.20559 -0.82422,-0.32031 z m 1.03711,0.38281 c 0.75375,0.95332 -0.0663,1.78167 -1.61328,2.5625 l -1.19532,6.09375 c 0.54935,-0.23881 1.16384,-0.48515 1.84766,-0.73828 0.70509,-0.96338 1.62527,-1.23085 3.42187,-0.82812 2.7e-4,-1.85071 0.002,-3.70203 0.002,-5.55274 10e-6,-0.13574 0,-0.0713 0,-0.20312 -0.69915,-0.5639 -1.55145,-0.97415 -2.46289,-1.33399 z m -2.8086,8.65625 c -0.88863,0.38631 -1.57753,0.74772 -2.16601,1.08985 -0.0928,0.43171 -0.18647,0.8632 -0.2793,1.29492 0.42262,0.52069 0.84514,1.04159 1.26758,1.5625 0.11422,-0.0622 0.30899,-0.15714 0.44726,-0.22656 z m 1.19532,-6.09375 0.25976,-1.32422 c -0.31253,0.56165 -0.64856,1.10879 -0.98633,1.65625 0.25008,-0.11038 0.50433,-0.21985 0.72657,-0.33203 z m 0.25976,-1.32422 c 0.22659,-0.40719 0.44537,-0.81921 0.6543,-1.23632 0.11287,-0.22534 -0.11268,-0.10698 -0.42774,0.0742 z m 2.7168,8.23829 c -1.26585,0.81935 -2.06789,1.27109 -2.66211,1.5957 -0.082,0.0865 -0.16485,0.16951 -0.24805,0.25586 0.78565,-0.43174 1.70192,-0.955 2.94336,-1.72461 -0.0147,-0.0453 -0.0207,-0.0835 -0.0332,-0.12695 z m -7.1836,4.19726 c -0.008,0.0389 -0.0151,0.0783 -0.0234,0.11719 0.1585,0.0938 0.25584,0.14178 0.41992,0.24023 0.0337,-0.0574 0.0752,-0.13336 0.10742,-0.18554 -0.16753,-0.0575 -0.33525,-0.1158 -0.50391,-0.17188 z m -0.0234,0.11719 c -0.0737,-0.0436 -0.12536,-0.0706 -0.19532,-0.11133 -0.53034,1.14583 -0.41187,1.49278 0.0723,1.34961 0.18847,-0.36146 0.39385,-0.73935 0.53711,-0.98437 -0.0302,0.006 -0.30591,-0.0996 -0.43945,-0.14063 0.008,-0.0378 0.0172,-0.0754 0.0254,-0.11328 z m -5.64453,1.63086 c 0.0291,8.29317 0.0322,16.58572 0.0293,24.8789 1.3608,-0.49143 2.72053,-0.96919 4.21289,-1.45507 0.061,-0.3578 0.10478,-0.6552 0.17383,-1.04688 0.0266,-0.15113 0.0553,-0.302 0.082,-0.45312 -0.28832,-0.91801 -0.57718,-1.83641 -0.74804,-2.75977 -0.28732,-0.59256 -0.59673,-1.30565 -0.98829,-2.27734 -0.34422,-0.85426 -0.38134,-1.80911 -0.43554,-2.72852 -0.27762,-4.70562 0.62331,-8.09628 2.16211,-12.55664 0.26585,-0.50884 0.3958,-0.75974 0.59375,-1.14453 -1.75963,-0.0626 -3.44395,-0.20332 -5.08203,-0.45703 z m -30.55469,30.05469 c 0.01,0.0215 0.0246,0.0658 0.0332,0.084 0.0557,0.11768 0.19634,0.32289 0.31641,0.49219 -0.0154,-0.0379 -0.0315,-0.0754 -0.0469,-0.11328 -0.10161,-0.15365 -0.2026,-0.30833 -0.30273,-0.46289 z m -14.87695,30.35546 c -0.52524,0.14904 -1.0484,0.30453 -1.56055,0.48243 -0.10473,0.0132 -0.20229,0.11453 -0.29297,0.23242 -0.0606,0.22193 -0.12291,0.4429 -0.17774,0.66601 0.0521,0.15549 0.10245,0.36687 0.15235,0.56641 0.61063,-0.6686 1.2243,-1.33178 1.87891,-1.94727 z m -3.05665,1.78711 c -0.13694,-0.10156 -0.76738,1.61972 -1.06835,2.23243 -0.0601,0.12238 -0.21494,0.48557 -0.11524,0.39257 0.37764,-0.35251 0.73279,-0.72914 1.08984,-1.10547 0.0591,-0.44968 0.10537,-0.90099 0.11914,-1.35546 0.003,-0.0975 -0.006,-0.14956 -0.0254,-0.16407 z m 12.73633,23.85938 c -0.0161,0.002 -0.0348,0.007 -0.0508,0.01 0.0235,0.0128 0.007,0.008 0.0469,0.0274 0.0262,-0.002 0.052,-0.007 0.0781,-0.01 -0.0249,-0.008 -0.0492,-0.019 -0.0742,-0.0273 z m 8.84961,6.01953 c -0.0929,0.18537 -0.0302,0.66244 -0.0117,0.49805 0.0177,-0.15666 0.0192,-0.32515 0.0117,-0.49805 z" />
    </clipPath>
  </defs>
  <sodipodi:namedview
     pagecolor="#ffffff"
     bordercolor="#666666"
     borderopacity="1"
     objecttolerance="10"
     gridtolerance="10"
     guidetolerance="10"
     inkscape:pageopacity="0"
     inkscape:pageshadow="2"
     inkscape:window-width="1366"
     inkscape:window-height="704"
     id="namedview13"
     showgrid="false"
     inkscape:zoom="0.53710938"
     inkscape:cx="3.4816529"
     inkscape:cy="351.52374"
     inkscape:window-x="0"
     inkscape:window-y="27"
     inkscape:window-maximized="1"
     inkscape:current-layer="Capa_1" />
  <g
     id="g715">
    <g
       id="g700">
      <g
         id="g10"
         clip-path="url(#clipPath691)">
        <path
           d="M 442.525,309.437 H 429.703 V 10 c 0,-5.523 -4.478,-10 -10,-10 h -75.15 c -5.522,0 -10,4.477 -10,10 V 49.174 C 322.671,44.131 310.038,40.523 296.873,38.566 V 10 c 0,-5.523 -4.478,-10 -10,-10 h -61.746 c -5.522,0 -10,4.477 -10,10 v 28.566 c -13.165,1.957 -25.797,5.565 -37.68,10.608 V 10 c 0,-5.523 -4.478,-10 -10,-10 h -75.15 c -5.522,0 -10,4.477 -10,10 V 309.437 H 69.475 c -20.202,0 -36.639,16.436 -36.639,36.639 v 88.765 c 0,20.203 16.437,36.639 36.639,36.639 h 12.822 v 3.882 c 0,20.203 16.437,36.639 36.639,36.639 h 274.129 c 20.202,0 36.639,-16.436 36.639,-36.639 v -3.882 h 12.822 c 20.202,0 36.639,-16.436 36.639,-36.639 v -88.765 c -0.001,-20.203 -16.437,-36.639 -36.64,-36.639 z M 354.553,20 h 55.15 v 96.389 C 396.513,93.005 377.46,73.348 354.553,59.428 Z m -119.426,0 h 41.746 v 16.9 c -1,-0.019 -2.003,-0.029 -3.008,-0.029 h -35.73 c -1.005,0 -2.007,0.01 -3.008,0.029 z m -132.83,0 h 55.15 v 39.428 c -22.907,13.92 -41.96,33.577 -55.15,56.961 z M 69.475,451.479 c -9.175,0 -16.639,-7.464 -16.639,-16.639 v -88.765 c 0,-9.175 7.464,-16.639 16.639,-16.639 H 82.297 V 451.478 H 69.475 Z m 340.228,23.882 c 0,9.175 -7.464,16.639 -16.639,16.639 H 118.936 c -9.175,0 -16.639,-7.464 -16.639,-16.639 V 192.709 c 0,-74.901 60.937,-135.838 135.838,-135.838 h 35.73 c 74.901,0 135.838,60.937 135.838,135.838 z m 49.461,-40.521 c 0,9.175 -7.464,16.639 -16.639,16.639 H 429.703 V 329.437 h 12.822 c 9.175,0 16.639,7.464 16.639,16.639 z"
           id="path2" />
        <path
           d="M 371.29,318.489 H 140.71 c -5.522,0 -10,4.477 -10,10 v 131.726 c 0,5.523 4.478,10 10,10 h 230.58 c 5.522,0 10,-4.477 10,-10 V 328.489 c 0,-5.523 -4.477,-10 -10,-10 z m -10,131.726 H 150.71 V 338.489 h 210.58 z"
           id="path4" />
        <path
           d="m 371.29,164.748 c -5.522,0 -10,4.477 -10,10 v 84.704 H 150.71 v -84.704 c 0,-5.523 -4.478,-10 -10,-10 -5.522,0 -10,4.477 -10,10 v 94.704 c 0,5.523 4.478,10 10,10 h 230.58 c 5.522,0 10,-4.477 10,-10 v -94.704 c 0,-5.523 -4.477,-10 -10,-10 z"
           id="path6" />
        <path
           d="m 248.937,201.826 c 1.952,1.948 4.508,2.921 7.063,2.921 2.555,0 5.111,-0.974 7.063,-2.921 l 33.271,-33.2 c 1.88,-1.876 2.937,-4.423 2.937,-7.079 0,-2.656 -1.057,-5.203 -2.937,-7.079 l -33.271,-33.2 c -3.904,-3.896 -10.223,-3.896 -14.127,0 l -33.271,33.2 c -1.88,1.876 -2.937,4.423 -2.937,7.079 0,2.656 1.057,5.203 2.937,7.079 z M 256,142.475 275.114,161.548 256,180.621 236.886,161.548 Z"
           id="path8" />
      </g>
    </g>
    <g
       id="g621"
       transform="matrix(7.5614238,0,0,7.5614238,287.90909,280.71901)">
      <g
         data-name="Layer 2"
         id="Layer_2">
        <path
           d="M 16,29 A 13,13 0 1 1 29,16 13,13 0 0 1 16,29 Z M 16,5 A 11,11 0 1 0 27,16 11,11 0 0 0 16,5 Z"
           id="path598" />
        <path
           d="M 16,23 A 1,1 0 0 1 15,22 V 10 a 1,1 0 0 1 2,0 v 12 a 1,1 0 0 1 -1,1 z"
           id="path600" />
        <path
           d="M 22,17 H 10 a 1,1 0 0 1 0,-2 h 12 a 1,1 0 0 1 0,2 z"
           id="path602" />
      </g>
      <g
         id="frame">
        <path
           id="rect605"
           style="fill:none"
           d="M 0,0 H 32 V 32 H 0 Z"
           class="cls-1" />
      </g>
    </g>
  </g>
</svg>
