<?xml version="1.0" encoding="UTF-8"?>
<svg xmlns="http://www.w3.org/2000/svg" id="Layer_3" data-name="Layer 3" viewBox="0 0 64 64" width="512" height="512"><path d="M52,41H49V28.816A3,3,0,0,0,51,26V14a3,3,0,0,0-2-2.816V4a3,3,0,0,0-3-3H42a3,3,0,0,0-3,3v7H38a6,6,0,0,0-12,0H25V4a3,3,0,0,0-3-3H18a3,3,0,0,0-3,3v7.184A3,3,0,0,0,13,14V26a3,3,0,0,0,2,2.816V41H12a5.006,5.006,0,0,0-5,5V56a5.006,5.006,0,0,0,5,5h3.184A3,3,0,0,0,18,63H46a3,3,0,0,0,2.816-2H52a5.006,5.006,0,0,0,5-5V46A5.006,5.006,0,0,0,52,41ZM39,52H25V50H39Zm.142-4H24.858A4,4,0,0,0,21,45H17V29h5v4a1,1,0,0,0-1,1v4a1,1,0,0,0,.553.9l2,1A1,1,0,0,0,24,40h2a1,1,0,0,0,.447-.1l2-1A1,1,0,0,0,29,38V34a1,1,0,0,0-1-1V29h8v4a1,1,0,0,0-1,1v4a1,1,0,0,0,.553.9l2,1A1,1,0,0,0,38,40h2a1,1,0,0,0,.447-.1l2-1A1,1,0,0,0,43,38V34a1,1,0,0,0-1-1V29h5V45H43A4,4,0,0,0,39.142,48ZM17,47h4a2,2,0,0,1,2,2v4a2,2,0,0,1-2,2H17ZM27,13V27H23V13ZM37,35h4v2.382L39.764,38H38.236L37,37.382Zm1-2V29h2v4Zm-9-6V13h6V27Zm-6,8h4v2.382L25.764,38H24.236L23,37.382Zm1-2V29h2v4ZM41,49a2,2,0,0,1,2-2h4v8H43a2,2,0,0,1-2-2Zm8-23a1,1,0,0,1-1,1H43V13h5a1,1,0,0,1,1,1ZM47,4v7H45V3h1A1,1,0,0,1,47,4ZM41,4a1,1,0,0,1,1-1h1v8H41Zm0,9V27H37V13ZM32,7a4,4,0,0,1,4,4H28A4,4,0,0,1,32,7ZM23,4v7H21V3h1A1,1,0,0,1,23,4ZM18,3h1v8H17V4A1,1,0,0,1,18,3ZM15,14a1,1,0,0,1,1-1h5V27H16a1,1,0,0,1-1-1ZM9,56V46a3,3,0,0,1,3-3h3V59H12A3,3,0,0,1,9,56Zm37,5H18a1,1,0,0,1-1-1V57h4a4,4,0,0,0,3.858-3H39.142A4,4,0,0,0,43,57h4v3A1,1,0,0,1,46,61Zm9-5a3,3,0,0,1-3,3H49V43h3a3,3,0,0,1,3,3Z"/></svg>
