<svg id="Capa_1" enable-background="new 0 0 512 512" height="512" viewBox="0 0 512 512" width="512" xmlns="http://www.w3.org/2000/svg"><g><path d="m194.143 222.405h30.772v18.361c0 5.523 4.477 10 10 10h42.17c5.522 0 10-4.477 10-10v-18.361h30.795c27.259 0 49.436-22.177 49.436-49.436v-57.639c0-5.523-4.478-10-10-10s-10 4.477-10 10v57.639c0 16.231-13.205 29.436-29.436 29.436h-30.795v-17.28c0-5.523-4.478-10-10-10h-42.17c-5.523 0-10 4.477-10 10v17.28h-30.772c-16.231 0-29.436-13.205-29.436-29.436v-57.639c0-5.523-4.477-10-10-10s-10 4.477-10 10v57.639c.001 27.259 22.178 49.436 49.436 49.436zm50.772-27.28h22.17v35.642h-22.17z"/><path d="m466.139 399.565v-105.085c0-14.807-12.046-26.853-26.853-26.853h-18.912v-224.738c0-23.649-19.24-42.889-42.888-42.889-23.649 0-42.89 19.24-42.89 42.889v13.971h-157.169v-13.971c0-23.649-19.239-42.889-42.889-42.889s-42.89 19.24-42.89 42.889v224.738h-18.934c-14.807 0-26.853 12.046-26.853 26.853v105.085c0 15.209 7.067 28.799 18.089 37.658-9.535 7.719-15.641 19.513-15.641 32.708 0 23.197 18.872 42.069 42.069 42.069h331.267c23.197 0 42.069-18.872 42.069-42.069 0-13.2-6.111-24.999-15.652-32.717 11.015-8.86 18.077-22.445 18.077-37.649zm-26.853-111.938c3.778 0 6.853 3.074 6.853 6.853v105.085c0 14.75-11.343 26.9-25.765 28.186v-140.124zm-327.637 140.236v-301.884c0-27.084 22.035-49.119 49.119-49.119h190.488c27.084 0 49.118 22.035 49.118 49.119v301.884zm212.99 20v44.137h-137.277v-44.137zm52.847-427.863c12.621 0 22.889 10.268 22.889 22.889v34.507c-11.805-11.934-27.914-19.602-45.778-20.456v-14.051c-.001-12.621 10.268-22.889 22.889-22.889zm-265.837 22.889c0-12.621 10.268-22.889 22.89-22.889 12.621 0 22.889 10.268 22.889 22.889v14.051c-17.865.854-33.974 8.522-45.779 20.456zm-45.788 251.591c0-3.778 3.074-6.853 6.853-6.853h18.912v140.123c-14.422-1.285-25.765-13.436-25.765-28.186zm2.448 175.451c0-12.168 9.9-22.068 22.069-22.068h34.601v44.137h-34.601c-12.169 0-22.069-9.9-22.069-22.069zm76.67 22.069v-44.137h22.383v44.137zm199.66 0v-44.137h22.383v44.137zm77.006-44.137c12.169 0 22.069 9.9 22.069 22.068 0 12.169-9.9 22.069-22.069 22.069h-34.623v-44.137z"/><path d="m361.31 268.303h-210.596c-5.523 0-10 4.477-10 10v113.583c0 5.523 4.477 10 10 10h210.596c5.522 0 10-4.477 10-10v-113.583c0-5.523-4.478-10-10-10zm-10 113.583h-190.596v-93.583h190.596z"/></g></svg>