<svg id="Layer_1" enable-background="new 0 0 512 512" height="512" viewBox="0 0 512 512" width="512" xmlns="http://www.w3.org/2000/svg"><path d="m134.029 473.792h243.941v-146.866h-243.941zm228.942-15h-213.942v-52.906h213.941v52.906zm-213.942-116.866h213.941v48.961h-213.941z"/><path d="m433.31 256.83v-77.89h8.91v-18.117h33.526v-128.934h-33.526v-18.119h-64.249v-13.77h-56v13.77h-124.111v-13.77h-56v13.77h-74.11v18.119h-31.496v128.934h31.496v18.117h8.91v147.986h-40.406v146.867h40.406v38.207h356.65v-38.208h42.436v-146.866h-42.436v-55.096h-15v225.17h-326.65v-318.06h50.2v52.025h-7.831v47.472l12.736 23.063h46.194l12.736-23.063v-47.472h-7.836v-52.025h124.11v52.025h-7.833v47.472l12.736 23.063h46.194l12.736-23.063v-47.472h-7.833v-52.025h40.339v77.89zm8.914-209.941h18.522v98.934h-18.522zm-374.475 98.934h-16.495v-98.934h16.495zm392.997 312.969h-27.435v-52.906h27.435zm-27.434-116.866h27.435v48.961h-27.435zm-382.058 0h24.868v48.961h-24.868zm0 116.866v-52.906h24.868v52.906zm285.717-443.792h25.999v163.94 52.025h-26v-215.965zm-152.863 271.5h-28.491l-6.588-11.929v-28.601h41.667v28.601zm-27.248-55.535v-52.025-15-69.29h-15v69.29h-59.11v-135.17h59.11v50.88h15v-64.65h26v148.94 67.025zm41.003-67.025v-135.17h124.107v135.17zm166.353 122.56h-28.491l-6.588-11.929v-28.601h41.667v28.601zm13.755-122.56v-135.17h49.249v135.17z"/><path d="m325.213 446.313h-68.868v-15h68.868zm-83.867 0h-15v-15h15zm-30 0h-15v-15h15z"/></svg>