<?xml version="1.0" encoding="iso-8859-1"?>
<!-- Generator: Adobe Illustrator 19.0.0, SVG Export Plug-In . SVG Version: 6.00 Build 0)  -->
<svg version="1.1" id="Capa_1" xmlns="http://www.w3.org/2000/svg" xmlns:xlink="http://www.w3.org/1999/xlink" x="0px" y="0px"
	 viewBox="0 0 512 512" style="enable-background:new 0 0 512 512;" xml:space="preserve">
<g>
	<g>
		<path d="M256.004,0c-32.939,0-59.733,26.795-59.733,59.733V76.8h119.467V59.733C315.738,26.795,288.943,0,256.004,0z
			 M213.338,59.733c0-23.526,19.14-42.667,42.667-42.667c23.526,0,42.667,19.14,42.667,42.667H213.338z"/>
	</g>
</g>
<g>
	<g>
		<path d="M290.138,110.933h-68.267c-4.71,0-8.533,3.823-8.533,8.533V153.6c0,4.71,3.823,8.533,8.533,8.533h68.267
			c4.71,0,8.533-3.823,8.533-8.533v-34.133C298.671,114.756,294.848,110.933,290.138,110.933z M281.604,145.067h-51.2V128h51.2
			V145.067z"/>
	</g>
</g>
<g>
	<g>
		<path d="M119.471,409.6v37.666l34.133,34.142l34.133-34.142V409.6H119.471z M170.671,440.201l-17.067,17.067l-17.067-17.067
			v-13.534h34.133V440.201z"/>
	</g>
</g>
<g>
	<g>
		<path d="M110.938,256v51.2h85.333V256H110.938z M179.204,290.133h-51.2v-17.067h51.2V290.133z"/>
	</g>
</g>
<g>
	<g>
		<path d="M324.271,409.6v37.666l34.133,34.142l34.133-34.142V409.6H324.271z M375.471,440.201l-17.067,17.067l-17.067-17.067
			v-13.534h34.133V440.201z"/>
	</g>
</g>
<g>
	<g>
		<path d="M315.738,256v51.2h85.333V256H315.738z M384.004,290.133h-51.2v-17.067h51.2V290.133z"/>
	</g>
</g>
<g>
	<g>
		<path d="M119.471,290.133v157.133l34.133,34.142l34.133-34.142V290.133H119.471z M170.671,440.201l-17.067,17.067l-17.067-17.067
			V307.2h34.133V440.201z"/>
	</g>
</g>
<g>
	<g>
		<path d="M324.271,290.133v157.133l34.133,34.142l34.133-34.142V290.133H324.271z M375.471,440.201l-17.067,17.067l-17.067-17.067
			V307.2h34.133V440.201z"/>
	</g>
</g>
<g>
	<g>
		<path d="M429.257,421.589c-9.011,8.781-20.873,13.611-33.399,13.611h-15.386l-22.067,22.067L336.346,435.2H175.671l-22.067,22.067
			L131.546,435.2H116.16c-12.527,0-24.388-4.838-33.399-13.611l-14.49-14.114v73.045C68.271,497.877,82.394,512,99.75,512h312.508
			c17.357,0,31.479-14.123,31.488-31.479v-73.045L429.257,421.589z M426.671,480.521c0,7.945-6.468,14.413-14.413,14.413H99.75
			c-7.945,0-14.413-6.468-14.413-14.413v-36.028c9.37,5.077,19.908,7.774,30.814,7.774h8.32l29.133,29.141l29.141-29.141h146.526
			l29.133,29.141l29.141-29.141h8.311c10.906,0,21.436-2.697,30.814-7.774V480.521z"/>
	</g>
</g>
<g>
	<g>
		<path d="M332.804,59.733h-153.6c-4.71,0-8.533,3.823-8.533,8.533v128c0,4.71,3.823,8.533,8.533,8.533h153.6
			c4.71,0,8.533-3.823,8.533-8.533v-128C341.338,63.556,337.515,59.733,332.804,59.733z M324.271,187.733H187.738V76.8h136.533
			V187.733z"/>
	</g>
</g>
<g>
	<g>
		<path d="M426.671,59.733h-42.667c-4.71,0-8.533,3.823-8.533,8.533v122.035c0,2.876,1.459,5.564,3.866,7.142
			c1.408,0.922,3.038,1.391,4.668,1.391c1.161,0,2.321-0.239,3.422-0.717c29.022-12.689,47.778-41.335,47.778-72.977V68.267
			C435.204,63.556,431.381,59.733,426.671,59.733z M418.138,125.141c0,20.19-9.719,38.835-25.6,50.466V76.8h25.6V125.141z"/>
	</g>
</g>
<g>
	<g>
		<path d="M128.004,59.733H85.338c-4.71,0-8.533,3.823-8.533,8.533v56.875c0,31.642,18.756,60.288,47.787,72.977
			c1.092,0.478,2.253,0.717,3.413,0.717c1.638,0,3.26-0.469,4.668-1.391c2.415-1.579,3.866-4.267,3.866-7.142V68.267
			C136.538,63.556,132.715,59.733,128.004,59.733z M119.471,175.607c-15.872-11.631-25.6-30.276-25.6-50.466V76.8h25.6V175.607z"/>
	</g>
</g>
<g>
	<g>
		<path d="M372.766,34.133H344.06c-10.906,0-19.78,8.875-19.78,19.78V256c0,3.755,0.674,7.475,2.057,11.383l2.014,5.683h60.117
			l2.022-5.683c1.382-3.9,2.057-7.629,2.057-11.383V53.914C392.546,43.008,383.671,34.133,372.766,34.133z M375.471,256h-34.133
			l0-202.086c0-1.493,1.22-2.714,2.714-2.714h28.706c1.493,0,2.714,1.22,2.714,2.714V256z"/>
	</g>
</g>
<g>
	<g>
		<path d="M167.966,34.133H139.26c-10.906,0-19.78,8.875-19.78,19.78V256c0,3.755,0.674,7.475,2.057,11.383l2.014,5.683h60.117
			l2.022-5.683c1.382-3.9,2.057-7.629,2.057-11.383V53.914C187.746,43.008,178.871,34.133,167.966,34.133z M170.671,256h-34.133
			V53.914c0-1.493,1.22-2.714,2.714-2.714h28.706c1.493,0,2.714,1.22,2.714,2.714V256z"/>
	</g>
</g>
<g>
	<g>
		<path d="M128.013,273.067h13.653l-4.045-11.383c-0.717-2.039-1.075-3.9-1.075-5.683v-71.245l-5.12-2.236
			c-12.749-5.564-23.415-15.377-30.046-27.639l-16.043-29.645v216.098h51.2l0.009-51.2h-8.533V273.067z M119.471,256h-8.533v51.2
			h8.533v17.067h-17.067V183.62c5.129,4.745,10.863,8.815,17.067,12.075V256z"/>
	</g>
</g>
<g>
	<g>
		<path d="M410.637,154.88c-6.63,12.254-17.297,22.076-30.046,27.639l-5.12,2.236V256c0,1.783-0.35,3.644-1.075,5.683l-4.036,11.383
			h13.645v17.067h-8.533v51.2h51.2V125.235L410.637,154.88z M409.604,324.267h-17.067V307.2h8.533V256h-8.533v-60.305
			c6.204-3.26,11.938-7.33,17.067-12.075V324.267z"/>
	</g>
</g>
<g>
	<g>
		<path d="M332.804,273.067h13.653l-4.045-11.383c-0.717-2.039-1.075-3.9-1.075-5.683v-68.267H170.671V256
			c0,1.783-0.35,3.644-1.075,5.683l-4.045,11.383h13.653v17.067h-8.533v51.2h170.667h0v-51.2h-8.533V273.067z M324.271,256h-8.533
			v51.2h8.533v17.067H187.738V307.2h8.533V256h-8.533v-51.2h136.533V256z"/>
	</g>
</g>
<g>
	<g>
		<path d="M68.262,324.267c-9.412,0-17.058,7.654-17.058,17.058v45.995c0,35.806,29.133,64.947,64.947,64.947h20.386v-128H68.262z
			 M119.462,435.2h-3.319c-26.394,0-47.881-21.478-47.881-47.881l-0.009-45.986h51.209V435.2z"/>
	</g>
</g>
<g>
	<g>
		<path d="M443.738,324.267h-68.275v128h20.386c35.814,0,64.956-29.141,64.947-64.947v-45.995
			C460.796,331.913,453.141,324.267,443.738,324.267z M443.738,387.319c0,26.402-21.478,47.881-47.881,47.881h-3.319v-93.867h51.2
			V387.319z"/>
	</g>
</g>
<g>
	<g>
		<path d="M170.671,324.267v128h170.667v-128H170.671z M324.271,435.2H187.738v-93.867h136.533V435.2z"/>
	</g>
</g>
<g>
</g>
<g>
</g>
<g>
</g>
<g>
</g>
<g>
</g>
<g>
</g>
<g>
</g>
<g>
</g>
<g>
</g>
<g>
</g>
<g>
</g>
<g>
</g>
<g>
</g>
<g>
</g>
<g>
</g>
</svg>
