<?xml version="1.0" encoding="UTF-8" standalone="no"?>
<svg
   xmlns:dc="http://purl.org/dc/elements/1.1/"
   xmlns:cc="http://creativecommons.org/ns#"
   xmlns:rdf="http://www.w3.org/1999/02/22-rdf-syntax-ns#"
   xmlns:svg="http://www.w3.org/2000/svg"
   xmlns="http://www.w3.org/2000/svg"
   xmlns:sodipodi="http://sodipodi.sourceforge.net/DTD/sodipodi-0.dtd"
   xmlns:inkscape="http://www.inkscape.org/namespaces/inkscape"
   version="1.1"
   id="Capa_1"
   x="0px"
   y="0px"
   viewBox="0 0 438.891 438.891"
   style="enable-background:new 0 0 438.891 438.891;"
   xml:space="preserve"
   sodipodi:docname="checklist_add.svg"
   inkscape:version="1.0.2 (1.0.2+r75+1)"><metadata
   id="metadata57"><rdf:RDF><cc:Work
       rdf:about=""><dc:format>image/svg+xml</dc:format><dc:type
         rdf:resource="http://purl.org/dc/dcmitype/StillImage" /><dc:title></dc:title></cc:Work></rdf:RDF></metadata><defs
   id="defs55"><style
     id="style115">.cls-1{fill:none;}</style><clipPath
     clipPathUnits="userSpaceOnUse"
     id="clipPath250"><path
       id="path252"
       style="fill:#ff0000;fill-opacity:1;fill-rule:nonzero;stroke:none"
       d="M 47.037109,0 V 438.89062 H 391.85352 V 415.0918 c -0.59023,0.71805 -1.32327,1.33865 -2.95313,2.47461 -2.17592,1.51654 -5.38652,1.72294 -7.98242,1.68164 -0.87044,-10e-6 -1.74089,-8e-5 -2.61133,0 -1.37012,1.5e-4 -2.73925,5.6e-4 -4.10937,0 -0.53737,2.3e-4 -1.07592,0.005 -1.61329,0 -1.53343,-0.009 -3.06617,0.0184 -4.5996,0.0254 -0.66441,-0.0248 -0.86539,-0.0329 -1.00586,-0.0488 -3.11102,1.32244 -5.46926,1.23766 -11.03907,-4.26563 -2.57383,-2.54308 -1.23644,-8.41809 0.96875,-10.96289 0.797,-1.73999 1.77706,-3.29368 3.08985,-4.57617 -0.002,-0.61652 0.002,-1.23308 -0.008,-1.84961 0.0158,-0.29345 0.0153,-0.19059 0.0215,-0.30664 -4.32414,-1.75478 -6.09379,-6.83358 -3.07617,-12.2207 -2.52643,0.97613 -5.12048,1.54153 -7.74219,1.21484 -6.46735,-0.80586 -9.05137,-9.78359 -9.65625,-14.91601 -0.3149,-2.67226 -0.22351,-5.378 -0.33594,-8.06641 0.0298,-0.25991 0.0505,-0.521 0.0781,-0.78125 -0.3355,0.0862 -0.67598,0.17685 -0.94727,0.21289 -1.20162,0.15959 -2.41944,0.16109 -3.62891,0.24219 -0.80882,-0.0954 -1.61696,-0.18976 -2.42578,-0.28516 -0.10754,-0.0127 -0.18746,-0.0332 -0.29101,-0.0469 -0.21131,0.0189 -0.44071,0.01 -0.68945,-0.0293 -2.41684,4.25195 -2.52758,2.75792 -15.61915,10.61523 -2.87318,1.72445 -5.86307,3.25748 -8.91992,4.65626 -0.89844,1.05207 -1.81388,2.08677 -2.82226,3.03124 -0.60881,0.57027 -1.44465,0.84937 -2.21875,1.16016 -4.90565,1.96958 -5.24403,2.16199 -9.87696,1.68945 -0.029,-0.0197 -0.057,-0.0408 -0.0859,-0.0605 -0.58152,0.19632 -1.16298,0.39772 -1.74414,0.58984 -2.62253,0.86694 -5.2603,2.32481 -8.01368,2.10547 -3.49933,-0.27876 -6.61324,-2.35664 -9.91992,-3.53516 1.64112,-5.32158 1.84246,-11.32483 4.92188,-15.96484 1.0326,-1.5559 2.56814,-2.60543 4.24414,-3.51367 2e-5,-0.0462 -3e-5,-0.0924 0,-0.13867 -6e-4,-1.22541 -0.003,-2.45049 0.0137,-3.67578 0,-0.0297 -0.003,0.0601 -0.004,0.0898 0.004,0.1876 0.0128,0.49353 -0.002,-0.28711 -0.0271,-1.43277 -0.0645,-2.86561 -0.0605,-4.29883 0.0222,-1.60005 0.0265,-2.19788 0.0547,-2.90625 -0.11391,-0.23034 -0.22049,-0.42965 -0.3418,-0.68945 -0.31026,-0.66454 -0.40569,-1.39017 -0.45117,-2.13086 -0.26151,-0.26115 -0.52082,-0.52473 -0.75586,-0.81055 -0.82364,-1.00159 -1.59221,-3.3951 -2.04492,-4.64258 -0.38143,-1.51948 -0.94755,-3.0044 -1.14453,-4.55859 -0.12548,-0.99002 -0.70923,-2.54844 0.1875,-2.98633 2.71157,-1.32411 4.8312,-2.55394 6.60547,-3.58203 2.10255,-12.37872 13.70866,-12.90553 17.27929,-1.61914 1.26279,-0.53981 2.44736,-0.8004 4.27344,-0.55469 0.62803,0.0845 1.47126,-0.0982 1.85742,0.4043 0.45099,0.5868 0.86728,1.19809 1.26954,1.81836 0.38552,-0.50584 0.76556,-1.0153 1.1582,-1.51563 1.22341,-1.55894 3.37321,-3.85925 4.64062,-5.4375 0.4398,-0.54767 0.82255,-1.13802 1.23438,-1.70703 0.22026,0.0622 0.43857,0.14335 0.6582,0.21094 7e-4,-0.003 9.5e-4,-0.007 0.002,-0.01 0.1759,-0.76129 0.85492,-1.63313 1.63476,-1.68164 3.3661,-0.20937 6.94948,-0.57516 10.19141,0.26954 1.52985,-5.15495 3.04766,-5.69396 17.60937,-1.16797 1.36773,0.4251 1.11589,2.20456 0.80274,3.96679 1.8945,-0.97897 3.18915,-1.64666 4.6289,-2.39062 0.98406,-1.72816 2.14151,-3.36437 3.18946,-5.05664 6.35402,-10.26074 4.69918,-7.69991 10.49023,-15.84571 1.69786,-1.9933 3.31687,-4.05781 5.01953,-6.04687 -0.67775,-0.93396 -1.22629,-1.99997 -1.76562,-2.99805 -0.16714,-0.30931 0.40512,-0.57574 0.60742,-0.86328 0.0509,-0.0428 0.0811,-0.08 0.12695,-0.12109 0.24198,-0.44944 0.49184,-0.89561 0.73633,-1.34375 0.19399,-0.28587 0.38804,-0.57155 0.58203,-0.85742 0.0267,-0.061 0.0511,-0.12215 0.0762,-0.1836 -0.0668,-0.0167 -0.11351,-0.0403 -0.082,-0.0859 0.0211,-0.0307 0.0695,-0.0472 0.125,-0.0566 0.003,-0.007 0.005,-0.0143 0.008,-0.0215 -0.29173,-0.009 -0.58793,0.004 -0.86523,-0.0801 -0.37978,-0.11459 -0.69565,-0.24567 -0.98047,-0.38867 -0.1452,0.22952 -0.28576,0.45721 -0.43945,0.68945 -0.12277,0.14282 -0.29834,0.60227 -0.36914,0.42774 -0.14426,-0.35571 0.21156,-0.75119 0.19726,-1.13477 -0.003,-0.0825 0.01,-0.23926 0.008,-0.34375 -0.0245,-0.0182 -0.0465,-0.038 -0.0703,-0.0566 -3.51802,4.28868 -1.07013,3.74215 -4.20508,3.98633 -1.90247,-0.17832 -3.17693,-0.17272 -5.05664,-1.08984 -1.84969,-0.90247 -2.68654,-2.73651 -3.31445,-4.58399 -0.18151,-0.53404 -0.11441,-1.11495 -0.0469,-1.69531 -0.34936,-0.17645 -0.60304,-0.41284 -0.62305,-0.78516 -0.0856,-1.59232 -0.0367,-2.67571 0.14258,-3.43164 -2.27854,1.37057 -5.48733,2.25 -9.64844,2.25 -0.60177,0 -1.20505,-0.0505 -1.80469,0 -0.093,0.008 -0.31305,0.14868 -0.22265,0.17188 0.19448,0.0499 0.78501,-0.14828 0.59765,-0.0762 -0.7834,0.30156 -1.58949,0.53067 -2.40625,0.72266 -0.85511,0.47148 -1.7196,0.92826 -2.56445,1.41602 -0.12287,10e-4 -0.24619,-0.004 -0.36914,-0.004 -0.11362,0.0308 -0.24107,0.0661 -0.3125,0.0684 -0.0534,0.002 -0.17798,0.002 -0.24024,0.004 -0.44987,0.0874 -0.9002,0.17186 -1.34961,0.26171 -0.24326,0.23372 -0.50171,0.45445 -0.7871,0.64844 -0.18562,0.12617 -0.57561,0.21098 -1.08204,0.26953 -0.22706,0.27804 -0.47072,0.58175 -0.67968,0.80469 -0.28473,0.30379 -0.61763,0.55983 -0.92578,0.83984 -11.278,10.2481 -2.79417,-14.92143 -7.10157,-16.82031 -1.2841,2.00913 -1.90758,4.6247 -3.41015,6.50586 -0.46151,0.5778 -0.0128,-1.49824 0.1914,-2.20898 0.70909,-2.46822 1.14701,-3.45755 1.95899,-4.26368 -0.85742,0.27159 -1.9669,0.9999 -3.43555,2.38086 -0.22795,0.21434 -0.47469,0.40964 -0.68359,0.64258 -0.42535,0.47435 -1.31866,1.74145 -0.35938,0.40235 1.95282,-2.49697 4.26872,-4.38357 7.18945,-5.45508 0.48773,-0.34876 1.02699,-0.74459 1.66602,-1.24414 1.20348,-0.24781 2.40203,-0.5265 3.61133,-0.74414 0.1373,-0.0247 0.53906,-0.0517 0.41797,0.0176 -0.0507,0.029 -0.14607,0.0614 -0.22071,0.0918 0.11383,-0.0448 0.22923,-0.0833 0.34961,-0.0996 0.31359,-0.0424 0.62944,-0.0634 0.94532,-0.084 0.0447,-0.0283 0.0901,-0.0555 0.13476,-0.084 1.25234,-0.0518 4.9963,-0.34911 3.75781,-0.15625 -1.2843,0.19999 -2.59513,0.1558 -3.89257,0.24024 -0.92628,0.58718 -1.85912,1.16347 -2.78321,1.7539 5.89943,0.0818 3.25375,0.0247 -0.18359,0.1211 -0.40682,0.26256 -0.81988,0.51474 -1.21484,0.79492 -0.21451,0.15217 -0.37275,0.39232 -0.46485,0.63867 -0.2535,0.67818 -0.43538,1.38358 -0.62695,2.08399 5.24157,-1.52524 11.85083,0.17398 15.96875,-3.38282 2.27723,-1.96693 -5.5726,-2.26915 -8.35938,-3.40429 -0.26444,0.0673 -1.04155,0.3137 -0.79297,0.20117 0.62916,-0.28481 1.32864,-0.37299 1.99219,-0.56445 2.13731,-0.61667 4.30231,-1.1612 6.53321,-1.1504 0.31868,0.002 0.63742,0.0134 0.95898,0.0391 12.5868,1.00399 16.57448,9.36809 11.91602,14.53906 0.32146,-0.0509 0.66433,-0.0986 1.04882,-0.15625 2.8213,-0.18285 3.46017,-0.28676 6.71485,-0.11133 1.16254,0.0627 2.31585,0.23588 3.47265,0.36719 0.70284,0.0798 1.40477,0.16674 2.10742,0.24805 -0.009,-0.008 -0.0767,-0.0678 -0.0801,-0.0703 -0.20677,-0.15584 -0.45058,-0.25698 -0.67578,-0.38476 -0.13987,-0.11519 0.003,0.003 -0.11915,-0.0977 -0.16367,-0.0152 -0.32712,-0.0265 -0.49023,-0.0469 -0.20069,-0.025 -0.40011,-0.0663 -0.59961,-0.0996 v -0.002 c -5.62495,-0.93749 -5.44561,-6.29719 -1.05273,-6.66796 0.62755,-0.053 1.33982,-0.002 2.13476,0.17578 0.71647,0.16052 1.66356,0.0389 2.31055,0.38867 0.61774,0.33394 1.02705,0.97488 1.63281,1.33008 0.21488,0.12599 -0.27843,-0.41281 -0.41797,-0.61914 1.12791,0.63427 0.66313,0.33895 2.375,1.7539 0.0252,0.0208 0.0475,0.0451 0.0723,0.0664 0.14586,-0.0923 0.29702,-0.17708 0.44141,-0.27149 0.25459,0.45046 0.53034,0.89054 0.79492,1.33594 0.69829,0.46405 1.61621,0.83407 2.36328,1.19922 0.5869,0.28686 1.16835,0.58735 1.75195,0.88086 2.10195,1.08977 0.82895,0.50036 4.56836,1.70312 1.12511,0.3619 2.25358,0.71371 3.38281,1.0625 0.21202,0.0655 0.42466,0.12831 0.63672,0.19336 1.01701,-0.51004 2.06278,-1.00356 3.1836,-1.4746 V 0 Z M 337.05859,285.91602 c 0.12623,-0.0245 0.25249,-0.0489 0.37891,-0.0723 -0.46458,-0.002 -0.92978,-0.006 -1.39453,-0.0117 -0.0315,0.0349 -0.0616,0.0712 -0.0937,0.10547 0.40056,-0.008 0.82185,-0.0132 1.10937,-0.0215 z m 0.37891,-0.0723 c 0.0579,2.6e-4 0.11594,0 0.17383,0 0.17593,-0.0477 0.32389,-0.0949 0.21484,-0.0762 -0.13008,0.0224 -0.25887,0.0522 -0.38867,0.0762 z m -9.93945,37.07813 c -0.1159,0.39053 -0.24939,0.86509 -0.3711,1.30859 0.0355,0.003 0.07,0.008 0.10547,0.0117 0.10831,-0.63246 0.2165,-1.2503 0.31836,-1.30469 -0.0177,-0.005 -0.035,-0.011 -0.0527,-0.0156 z m 0.0527,0.0156 c 0.034,-0.0181 0.0673,0.0272 0.0996,0.1543 0.0927,0.3652 0.15557,0.78338 0.19922,1.23242 1.2527,0.18384 2.43854,0.5557 3.52344,1.20703 -0.64854,-0.91871 -1.46786,-1.7447 -2.15821,-2.04102 -0.5406,-0.23204 -1.09899,-0.40387 -1.66406,-0.55273 z m -0.42383,1.29297 c -3.26263,-0.30255 -6.90151,0.44084 -10.28906,0.48633 3.02331,1.04301 6.00747,2.42957 9.04883,3.3164 0.12195,-0.27276 0.23789,-0.54821 0.36133,-0.82031 0.0143,-0.0315 0.0776,-0.0831 0.0898,-0.0508 0.0538,0.14189 0.032,0.56599 0.0644,0.47461 0.004,-0.0135 0.008,-0.0275 0.0117,-0.041 0.15132,-0.60145 0.19245,-1.22699 0.28906,-1.83984 0.15956,-0.56545 0.28691,-1.02647 0.42383,-1.52539 z m -10.28906,0.48633 c -0.388,-0.13386 -0.77835,-0.25315 -1.16797,-0.37305 -0.0258,0.11098 -0.0704,0.23641 -0.10156,0.35156 0.41865,0.0203 0.84154,0.0272 1.26953,0.0215 z m 15.12305,-56.63282 c -0.56546,0.21027 -1.45138,0.41831 -1.04883,0.39258 0.37191,-0.0238 0.70311,-0.24036 1.04883,-0.39258 z m 14.0664,8.57032 c -0.0196,-0.006 -0.0433,0.0159 -0.0703,0.0742 -0.0362,0.0781 -0.2362,0.75637 -0.49805,1.57031 0.0717,-0.0189 0.14562,-0.0326 0.2168,-0.0527 0.43305,-0.12229 0.48903,-1.54956 0.35156,-1.59179 z m -5.58593,1.57031 c -0.0226,-0.002 -0.0549,0.0221 -0.0977,0.0781 -0.15015,0.19653 -0.27814,0.41209 -0.41406,0.6211 0.16068,-0.005 0.31999,-0.0134 0.48047,-0.0195 0.07,-0.36944 0.10881,-0.67373 0.0312,-0.67969 z m 18.23632,2.08984 c 0.16496,0.11118 0.32441,0.22724 0.48829,0.33985 -0.11343,-0.13311 -0.29077,-0.24029 -0.48829,-0.33985 z m 3.04297,5.43555 c -0.23506,-0.003 -0.42688,0.005 -0.63672,0.008 0.024,0.59573 0.0479,1.23039 0.0508,1.23828 0.0593,0.15798 0.27604,-0.20299 0.36914,-0.34375 0.0484,-0.0731 -0.051,-0.23111 0.0312,-0.26172 0.0766,-0.0286 0.21269,-0.0423 0.36328,-0.0508 0.12253,-0.14704 0.2557,-0.30139 0.45117,-0.5332 8e-4,-0.002 0.0163,-0.0307 0.0176,-0.0332 -0.20669,-0.007 -0.46253,-0.0207 -0.64649,-0.0234 z m -26.78125,0.0859 c -0.41572,0.008 -0.83201,0.0253 -1.24609,0.0645 -0.63491,0.06 0.0788,0.0677 1.07031,0.0586 0.0606,-0.0431 0.11693,-0.0817 0.17578,-0.12304 z m -0.60547,0.6582 c -0.005,0.006 -0.0504,0.0638 -0.0664,0.084 0.003,-9.8e-4 -0.005,0.007 -0.004,0.008 0.0137,-0.0181 0.0764,-0.0993 0.0703,-0.0918 z m -7.07812,0.5918 c 0.50038,0.0413 2.06577,0.16416 5.30664,0.44531 0.88048,-0.2413 -0.0946,0.34564 1.00586,-0.41992 -2.56615,0.23744 -7.52032,-0.12517 -6.3125,-0.0254 z m -43.67578,49.47656 c -0.0171,-0.009 -0.0915,0.0578 -0.16992,0.13477 0.0204,-0.008 0.0421,-0.0261 0.0605,-0.0215 0.0185,0.005 0.0381,0.007 0.0566,0.0117 0.0134,-0.0252 0.0298,-0.0489 0.043,-0.0742 0.0161,-0.0309 0.0174,-0.0467 0.01,-0.0508 z m -0.0527,0.125 c -0.006,0.0118 -0.0132,0.0234 -0.0195,0.0352 0.0706,0.0166 0.14223,0.0252 0.21289,0.041 0.008,-0.009 0.014,-0.0181 0.0215,-0.0273 -0.0707,-0.0171 -0.14441,-0.0314 -0.21485,-0.0488 z m -0.0195,0.0352 c -0.0344,-0.008 -0.0691,-0.0132 -0.10351,-0.0215 -0.10055,0.0996 -0.21157,0.22769 -0.27735,0.35938 -0.0475,0.095 -0.0659,0.18298 -0.0293,0.24218 0.0119,0.0193 0.0232,0.0393 0.0351,0.0586 0.12634,-0.2123 0.2587,-0.4213 0.375,-0.63867 z m -0.10351,-0.0215 c 0.002,-0.002 0.004,-0.002 0.006,-0.004 -0.004,10e-4 -0.008,0.002 -0.0117,0.004 0.002,4.5e-4 0.004,-4.5e-4 0.006,0 z m -0.42383,0.64649 c -0.0778,0.18763 -0.1437,0.38365 -0.19141,0.5664 0.0231,-0.0281 0.0452,-0.0559 0.0684,-0.084 0.0456,-0.0748 0.0874,-0.1516 0.13281,-0.22656 -0.004,-0.0854 -0.006,-0.1705 -0.01,-0.25586 z m -2.68164,9.33789 c -0.0254,-0.18256 -0.0223,0.37324 0.0195,0.55273 0.0196,0.084 0.0156,0.064 0.0332,0.14063 -0.0148,-0.23185 -0.0212,-0.46614 -0.0527,-0.69336 z m 0.90625,3.35351 c 0.0219,0.0389 0.0342,0.064 0.0586,0.10742 -0.002,-0.0196 -0.003,-0.0388 -0.006,-0.0586 -0.0178,-0.016 -0.0349,-0.0328 -0.0527,-0.0488 z m 34.9082,13.76367 c -0.14632,0.22216 -0.6384,0.98098 -0.68164,1.04493 -0.65945,0.97513 -1.37269,1.91184 -2.07422,2.85742 3.12075,1.86143 5.33393,1.98873 2.75586,-3.90235 z m 27.67969,2.17188 c -0.96443,0.52508 -2.17389,3.35687 -1.35742,2.74414 0.87992,-0.66035 1.72889,-1.35838 2.55859,-2.08008 -0.39819,-0.22669 -0.79853,-0.44823 -1.20117,-0.66406 z m 48.06055,13.88867 c -0.41549,0.1817 -0.64913,0.26665 -1.00782,0.41992 0.40776,0.0177 0.71671,0.0321 1.00782,0.0449 z m -31.52735,15.125 c 0.056,-0.41861 -0.22282,0.82574 -0.21679,1.24805 8.3e-4,0.0606 0.005,0.1086 0.006,0.16797 0.0418,-0.22655 0.10161,-0.59896 0.21094,-1.41602 z m -0.17578,2.33008 c 0.0365,0.65545 0.10709,1.22786 0.21094,1.74805 0.48625,-0.43446 1.01472,-0.83481 1.59765,-1.19336 -0.52889,0.44079 -1.07913,1.01369 -1.5,1.65234 0.18038,0.69105 0.44614,1.30392 0.82813,1.9082 0.67598,-0.27796 1.31098,-0.51856 1.9082,-0.66601 -0.0551,-0.57225 -0.10659,-1.14426 -0.16601,-1.7168 -0.31986,-0.35108 -0.61051,-0.75632 -0.86914,-1.22461 -0.7171,-0.0949 -1.38764,-0.26856 -2.00977,-0.50781 z m 3.04492,3.44922 c 0.007,0.0716 0.0128,0.14323 0.0195,0.21484 0.56702,-0.14347 1.13569,-0.28202 1.71094,-0.36523 -0.58381,-0.0569 -1.14956,0.007 -1.73047,0.15039 z m 0.0195,0.21484 c -0.62977,0.15935 -1.25488,0.33165 -1.875,0.52735 0.49201,0.75895 1.15952,1.51924 2.08789,2.45312 -0.0358,-0.99147 -0.11914,-1.98514 -0.21289,-2.98047 z m -1.875,0.52735 c -0.0163,-0.0252 -0.0368,-0.051 -0.0527,-0.0762 -0.30672,0.12613 -0.60606,0.24801 -0.94141,0.38868 0.32887,-0.10625 0.66262,-0.20788 0.99414,-0.3125 z M 360,400.39453 c -0.0674,0.17027 -0.11841,0.34275 -0.1582,0.51758 0.0172,-0.0309 0.0346,-0.0575 0.0605,-0.0527 0.13438,0.0249 0.0679,0.26403 0.10157,0.39648 8.6e-4,-0.28719 -0.004,-0.57419 -0.004,-0.86133 z m 11.92578,13.20703 c -0.0201,0.0135 -0.0337,0.0211 -0.0547,0.0352 0.0192,-0.009 0.0358,-0.0216 0.0547,-0.0312 -4.4e-4,-0.001 4.5e-4,-0.003 0,-0.004 z m -2.64453,4.55664 c -0.77837,0.37534 -1.46765,0.70325 -2.13281,0.99414 1.60613,0.13183 3.09508,0.0305 2.13281,-0.99414 z m -5.03711,0.56836 c 0.16364,0.0442 0.91843,0.18749 1.80274,0.30664 -0.34661,-0.0699 -0.81927,-0.15985 -1.63086,-0.29297 -0.20131,-0.033 -0.24539,-0.0335 -0.17188,-0.0137 z" /></clipPath></defs><sodipodi:namedview
   pagecolor="#ffffff"
   bordercolor="#666666"
   borderopacity="1"
   objecttolerance="10"
   gridtolerance="10"
   guidetolerance="10"
   inkscape:pageopacity="0"
   inkscape:pageshadow="2"
   inkscape:window-width="1366"
   inkscape:window-height="704"
   id="namedview53"
   showgrid="false"
   inkscape:document-rotation="0"
   inkscape:zoom="1.2531586"
   inkscape:cx="219.4455"
   inkscape:cy="251.36484"
   inkscape:window-x="0"
   inkscape:window-y="27"
   inkscape:window-maximized="1"
   inkscape:current-layer="Capa_1" />
















<g
   id="g81"
   sodipodi:insensitive="true"><g
     id="g160"><g
       id="g319"><g
         id="g285"><g
           id="g20"
           clip-path="url(#clipPath250)">
	<g
   id="g18">
		<g
   id="g16">
			<path
   style="color:#000000;font-style:normal;font-variant:normal;font-weight:normal;font-stretch:normal;font-size:medium;line-height:normal;font-family:sans-serif;font-variant-ligatures:normal;font-variant-position:normal;font-variant-caps:normal;font-variant-numeric:normal;font-variant-alternates:normal;font-variant-east-asian:normal;font-feature-settings:normal;font-variation-settings:normal;text-indent:0;text-align:start;text-decoration:none;text-decoration-line:none;text-decoration-style:solid;text-decoration-color:#000000;letter-spacing:normal;word-spacing:normal;text-transform:none;writing-mode:lr-tb;direction:ltr;text-orientation:mixed;dominant-baseline:auto;baseline-shift:baseline;text-anchor:start;white-space:normal;shape-padding:0;shape-margin:0;inline-size:0;clip-rule:nonzero;display:inline;overflow:visible;visibility:visible;opacity:1;isolation:auto;mix-blend-mode:normal;color-interpolation:sRGB;color-interpolation-filters:linearRGB;solid-color:#000000;solid-opacity:1;vector-effect:none;fill:#000000;fill-opacity:1;fill-rule:nonzero;stroke:none;stroke-width:1;stroke-linecap:butt;stroke-linejoin:miter;stroke-miterlimit:4;stroke-dasharray:none;stroke-dashoffset:0;stroke-opacity:1;color-rendering:auto;image-rendering:auto;shape-rendering:auto;text-rendering:auto;enable-background:accumulate;stop-color:#000000;stop-opacity:1"
   d="M 347.968,57.503 H 308.262 V 39.74 c 0,-5.747 -6.269,-8.359 -12.016,-8.359 H 265.422 C 258.108,10.483 239.822,0.034 218.924,0.034 198.256,-0.743 179.457,11.93 172.426,31.381 h -30.302 c -5.747,0 -11.494,2.612 -11.494,8.359 V 57.503 H 90.923 c -23.53,0.251 -42.78,18.813 -43.886,42.318 v 299.363 c 0,22.988 20.898,39.706 43.886,39.706 h 257.045 c 22.988,0 43.886,-16.718 43.886,-39.706 V 99.822 C 390.748,76.316 371.498,57.754 347.968,57.503 Z M 151.527,52.279 h 28.735 c 5.016,-0.612 9.045,-4.428 9.927,-9.404 3.094,-13.474 14.915,-23.146 28.735,-23.51 13.692,0.415 25.335,10.117 28.212,23.51 0.937,5.148 5.232,9.013 10.449,9.404 h 29.78 V 94.075 H 151.527 Z m 219.429,346.906 c 0,11.494 -11.494,18.808 -22.988,18.808 H 90.923 c -11.494,0 -22.988,-7.314 -22.988,-18.808 V 99.822 C 69.001,87.858 78.913,78.621 90.923,78.402 h 39.706 v 26.645 c 0.552,5.854 5.622,10.233 11.494,9.927 h 154.122 c 5.98,0.327 11.209,-3.992 12.016,-9.927 V 78.401 h 39.706 c 12.009,0.22 21.922,9.456 22.988,21.42 v 299.364 z"
   id="path2" />
			<path
   style="color:#000000;font-style:normal;font-variant:normal;font-weight:normal;font-stretch:normal;font-size:medium;line-height:normal;font-family:sans-serif;font-variant-ligatures:normal;font-variant-position:normal;font-variant-caps:normal;font-variant-numeric:normal;font-variant-alternates:normal;font-variant-east-asian:normal;font-feature-settings:normal;font-variation-settings:normal;text-indent:0;text-align:start;text-decoration:none;text-decoration-line:none;text-decoration-style:solid;text-decoration-color:#000000;letter-spacing:normal;word-spacing:normal;text-transform:none;writing-mode:lr-tb;direction:ltr;text-orientation:mixed;dominant-baseline:auto;baseline-shift:baseline;text-anchor:start;white-space:normal;shape-padding:0;shape-margin:0;inline-size:0;clip-rule:nonzero;display:inline;overflow:visible;visibility:visible;opacity:1;isolation:auto;mix-blend-mode:normal;color-interpolation:sRGB;color-interpolation-filters:linearRGB;solid-color:#000000;solid-opacity:1;vector-effect:none;fill:#000000;fill-opacity:1;fill-rule:nonzero;stroke:none;stroke-width:1;stroke-linecap:butt;stroke-linejoin:miter;stroke-miterlimit:4;stroke-dasharray:none;stroke-dashoffset:0;stroke-opacity:1;color-rendering:auto;image-rendering:auto;shape-rendering:auto;text-rendering:auto;enable-background:accumulate;stop-color:#000000;stop-opacity:1"
   d="m 179.217,233.569 c -3.919,-4.131 -10.425,-4.364 -14.629,-0.522 l -33.437,31.869 -14.106,-14.629 c -3.919,-4.131 -10.425,-4.363 -14.629,-0.522 -4.047,4.24 -4.047,10.911 0,15.151 l 21.42,21.943 c 1.854,2.076 4.532,3.224 7.314,3.135 2.756,-0.039 5.385,-1.166 7.314,-3.135 l 40.751,-38.661 c 4.04,-3.706 4.31,-9.986 0.603,-14.025 -0.19,-0.211 -0.391,-0.412 -0.601,-0.604 z"
   id="path4" />
			<path
   style="color:#000000;font-style:normal;font-variant:normal;font-weight:normal;font-stretch:normal;font-size:medium;line-height:normal;font-family:sans-serif;font-variant-ligatures:normal;font-variant-position:normal;font-variant-caps:normal;font-variant-numeric:normal;font-variant-alternates:normal;font-variant-east-asian:normal;font-feature-settings:normal;font-variation-settings:normal;text-indent:0;text-align:start;text-decoration:none;text-decoration-line:none;text-decoration-style:solid;text-decoration-color:#000000;letter-spacing:normal;word-spacing:normal;text-transform:none;writing-mode:lr-tb;direction:ltr;text-orientation:mixed;dominant-baseline:auto;baseline-shift:baseline;text-anchor:start;white-space:normal;shape-padding:0;shape-margin:0;inline-size:0;clip-rule:nonzero;display:inline;overflow:visible;visibility:visible;opacity:1;isolation:auto;mix-blend-mode:normal;color-interpolation:sRGB;color-interpolation-filters:linearRGB;solid-color:#000000;solid-opacity:1;vector-effect:none;fill:#000000;fill-opacity:1;fill-rule:nonzero;stroke:none;stroke-width:1;stroke-linecap:butt;stroke-linejoin:miter;stroke-miterlimit:4;stroke-dasharray:none;stroke-dashoffset:0;stroke-opacity:1;color-rendering:auto;image-rendering:auto;shape-rendering:auto;text-rendering:auto;enable-background:accumulate;stop-color:#000000;stop-opacity:1"
   d="M 329.16,256.034 H 208.997 c -5.771,0 -10.449,4.678 -10.449,10.449 0,5.771 4.678,10.449 10.449,10.449 H 329.16 c 5.771,0 10.449,-4.678 10.449,-10.449 0,-5.771 -4.678,-10.449 -10.449,-10.449 z"
   id="path6" />
			<path
   style="color:#000000;font-style:normal;font-variant:normal;font-weight:normal;font-stretch:normal;font-size:medium;line-height:normal;font-family:sans-serif;font-variant-ligatures:normal;font-variant-position:normal;font-variant-caps:normal;font-variant-numeric:normal;font-variant-alternates:normal;font-variant-east-asian:normal;font-feature-settings:normal;font-variation-settings:normal;text-indent:0;text-align:start;text-decoration:none;text-decoration-line:none;text-decoration-style:solid;text-decoration-color:#000000;letter-spacing:normal;word-spacing:normal;text-transform:none;writing-mode:lr-tb;direction:ltr;text-orientation:mixed;dominant-baseline:auto;baseline-shift:baseline;text-anchor:start;white-space:normal;shape-padding:0;shape-margin:0;inline-size:0;clip-rule:nonzero;display:inline;overflow:visible;visibility:visible;opacity:1;isolation:auto;mix-blend-mode:normal;color-interpolation:sRGB;color-interpolation-filters:linearRGB;solid-color:#000000;solid-opacity:1;vector-effect:none;fill:#000000;fill-opacity:1;fill-rule:nonzero;stroke:none;stroke-width:1;stroke-linecap:butt;stroke-linejoin:miter;stroke-miterlimit:4;stroke-dasharray:none;stroke-dashoffset:0;stroke-opacity:1;color-rendering:auto;image-rendering:auto;shape-rendering:auto;text-rendering:auto;enable-background:accumulate;stop-color:#000000;stop-opacity:1"
   d="m 179.217,149.977 c -3.919,-4.131 -10.425,-4.364 -14.629,-0.522 l -33.437,31.869 -14.106,-14.629 c -3.919,-4.131 -10.425,-4.364 -14.629,-0.522 -4.047,4.24 -4.047,10.911 0,15.151 l 21.42,21.943 c 1.854,2.076 4.532,3.224 7.314,3.135 2.756,-0.039 5.385,-1.166 7.314,-3.135 l 40.751,-38.661 c 4.04,-3.706 4.31,-9.986 0.603,-14.025 -0.19,-0.211 -0.391,-0.412 -0.601,-0.604 z"
   id="path8" />
			<path
   style="color:#000000;font-style:normal;font-variant:normal;font-weight:normal;font-stretch:normal;font-size:medium;line-height:normal;font-family:sans-serif;font-variant-ligatures:normal;font-variant-position:normal;font-variant-caps:normal;font-variant-numeric:normal;font-variant-alternates:normal;font-variant-east-asian:normal;font-feature-settings:normal;font-variation-settings:normal;text-indent:0;text-align:start;text-decoration:none;text-decoration-line:none;text-decoration-style:solid;text-decoration-color:#000000;letter-spacing:normal;word-spacing:normal;text-transform:none;writing-mode:lr-tb;direction:ltr;text-orientation:mixed;dominant-baseline:auto;baseline-shift:baseline;text-anchor:start;white-space:normal;shape-padding:0;shape-margin:0;inline-size:0;clip-rule:nonzero;display:inline;overflow:visible;visibility:visible;opacity:1;isolation:auto;mix-blend-mode:normal;color-interpolation:sRGB;color-interpolation-filters:linearRGB;solid-color:#000000;solid-opacity:1;vector-effect:none;fill:#000000;fill-opacity:1;fill-rule:nonzero;stroke:none;stroke-width:1;stroke-linecap:butt;stroke-linejoin:miter;stroke-miterlimit:4;stroke-dasharray:none;stroke-dashoffset:0;stroke-opacity:1;color-rendering:auto;image-rendering:auto;shape-rendering:auto;text-rendering:auto;enable-background:accumulate;stop-color:#000000;stop-opacity:1"
   d="M 329.16,172.442 H 208.997 c -5.771,0 -10.449,4.678 -10.449,10.449 0,5.771 4.678,10.449 10.449,10.449 H 329.16 c 5.771,0 10.449,-4.678 10.449,-10.449 0,-5.771 -4.678,-10.449 -10.449,-10.449 z"
   id="path10" />
			<path
   style="color:#000000;font-style:normal;font-variant:normal;font-weight:normal;font-stretch:normal;font-size:medium;line-height:normal;font-family:sans-serif;font-variant-ligatures:normal;font-variant-position:normal;font-variant-caps:normal;font-variant-numeric:normal;font-variant-alternates:normal;font-variant-east-asian:normal;font-feature-settings:normal;font-variation-settings:normal;text-indent:0;text-align:start;text-decoration:none;text-decoration-line:none;text-decoration-style:solid;text-decoration-color:#000000;letter-spacing:normal;word-spacing:normal;text-transform:none;writing-mode:lr-tb;direction:ltr;text-orientation:mixed;dominant-baseline:auto;baseline-shift:baseline;text-anchor:start;white-space:normal;shape-padding:0;shape-margin:0;inline-size:0;clip-rule:nonzero;display:inline;overflow:visible;visibility:visible;opacity:1;isolation:auto;mix-blend-mode:normal;color-interpolation:sRGB;color-interpolation-filters:linearRGB;solid-color:#000000;solid-opacity:1;vector-effect:none;fill:#000000;fill-opacity:1;fill-rule:nonzero;stroke:none;stroke-width:1;stroke-linecap:butt;stroke-linejoin:miter;stroke-miterlimit:4;stroke-dasharray:none;stroke-dashoffset:0;stroke-opacity:1;color-rendering:auto;image-rendering:auto;shape-rendering:auto;text-rendering:auto;enable-background:accumulate;stop-color:#000000;stop-opacity:1"
   d="m 179.217,317.16 c -3.919,-4.131 -10.425,-4.363 -14.629,-0.522 l -33.437,31.869 -14.106,-14.629 c -3.919,-4.131 -10.425,-4.363 -14.629,-0.522 -4.047,4.24 -4.047,10.911 0,15.151 l 21.42,21.943 c 1.854,2.076 4.532,3.224 7.314,3.135 2.756,-0.039 5.385,-1.166 7.314,-3.135 l 40.751,-38.661 c 4.04,-3.706 4.31,-9.986 0.603,-14.025 -0.19,-0.21 -0.391,-0.411 -0.601,-0.604 z"
   id="path12" />
			<path
   style="color:#000000;font-style:normal;font-variant:normal;font-weight:normal;font-stretch:normal;font-size:medium;line-height:normal;font-family:sans-serif;font-variant-ligatures:normal;font-variant-position:normal;font-variant-caps:normal;font-variant-numeric:normal;font-variant-alternates:normal;font-variant-east-asian:normal;font-feature-settings:normal;font-variation-settings:normal;text-indent:0;text-align:start;text-decoration:none;text-decoration-line:none;text-decoration-style:solid;text-decoration-color:#000000;letter-spacing:normal;word-spacing:normal;text-transform:none;writing-mode:lr-tb;direction:ltr;text-orientation:mixed;dominant-baseline:auto;baseline-shift:baseline;text-anchor:start;white-space:normal;shape-padding:0;shape-margin:0;inline-size:0;clip-rule:nonzero;display:inline;overflow:visible;visibility:visible;opacity:1;isolation:auto;mix-blend-mode:normal;color-interpolation:sRGB;color-interpolation-filters:linearRGB;solid-color:#000000;solid-opacity:1;vector-effect:none;fill:#000000;fill-opacity:1;fill-rule:nonzero;stroke:none;stroke-width:1;stroke-linecap:butt;stroke-linejoin:miter;stroke-miterlimit:4;stroke-dasharray:none;stroke-dashoffset:0;stroke-opacity:1;color-rendering:auto;image-rendering:auto;shape-rendering:auto;text-rendering:auto;enable-background:accumulate;stop-color:#000000;stop-opacity:1"
   d="M 329.16,339.626 H 208.997 c -5.771,0 -10.449,4.678 -10.449,10.449 0,5.771 4.678,10.449 10.449,10.449 H 329.16 c 5.771,0 10.449,-4.678 10.449,-10.449 0,-5.771 -4.678,-10.449 -10.449,-10.449 z"
   id="path14" />
		</g>
	</g>
</g><g
           id="g22">
</g><g
           id="g24">
</g><g
           id="g26">
</g><g
           id="g28">
</g><g
           id="g30">
</g><g
           id="g32">
</g><g
           id="g34">
</g><g
           id="g36">
</g><g
           id="g38">
</g><g
           id="g40">
</g><g
           id="g42">
</g><g
           id="g44">
</g><g
           id="g46">
</g><g
           id="g48">
</g><g
           id="g144"
           transform="matrix(6.3189052,0,0,6.3189052,255.08512,244.1952)"><g
             data-name="Layer 2"
             id="Layer_2"><path
               style="color:#000000;font-style:normal;font-variant:normal;font-weight:normal;font-stretch:normal;font-size:medium;line-height:normal;font-family:sans-serif;font-variant-ligatures:normal;font-variant-position:normal;font-variant-caps:normal;font-variant-numeric:normal;font-variant-alternates:normal;font-variant-east-asian:normal;font-feature-settings:normal;font-variation-settings:normal;text-indent:0;text-align:start;text-decoration:none;text-decoration-line:none;text-decoration-style:solid;text-decoration-color:#000000;letter-spacing:normal;word-spacing:normal;text-transform:none;writing-mode:lr-tb;direction:ltr;text-orientation:mixed;dominant-baseline:auto;baseline-shift:baseline;text-anchor:start;white-space:normal;shape-padding:0;shape-margin:0;inline-size:0;clip-rule:nonzero;display:inline;overflow:visible;visibility:visible;opacity:1;isolation:auto;mix-blend-mode:normal;color-interpolation:sRGB;color-interpolation-filters:linearRGB;solid-color:#000000;solid-opacity:1;vector-effect:none;fill:#000000;fill-opacity:1;fill-rule:nonzero;stroke:none;stroke-width:1;stroke-linecap:butt;stroke-linejoin:miter;stroke-miterlimit:4;stroke-dasharray:none;stroke-dashoffset:0;stroke-opacity:1;color-rendering:auto;image-rendering:auto;shape-rendering:auto;text-rendering:auto;enable-background:accumulate;stop-color:#000000;stop-opacity:1"
               d="M 16,29 C 4.4174314,29 -1.3810412,14.997199 6.8080788,6.8080788 14.997199,-1.3810412 29,4.4174314 29,16 29,23.179702 23.179702,29 16,29 Z M 16,5 C 6.1993651,5 1.2929651,16.848524 8.2222205,23.777779 15.151476,30.707035 27,25.800635 27,16 27,9.9248678 22.075132,5 16,5 Z"
               id="path121" /><path
               style="color:#000000;font-style:normal;font-variant:normal;font-weight:normal;font-stretch:normal;font-size:medium;line-height:normal;font-family:sans-serif;font-variant-ligatures:normal;font-variant-position:normal;font-variant-caps:normal;font-variant-numeric:normal;font-variant-alternates:normal;font-variant-east-asian:normal;font-feature-settings:normal;font-variation-settings:normal;text-indent:0;text-align:start;text-decoration:none;text-decoration-line:none;text-decoration-style:solid;text-decoration-color:#000000;letter-spacing:normal;word-spacing:normal;text-transform:none;writing-mode:lr-tb;direction:ltr;text-orientation:mixed;dominant-baseline:auto;baseline-shift:baseline;text-anchor:start;white-space:normal;shape-padding:0;shape-margin:0;inline-size:0;clip-rule:nonzero;display:inline;overflow:visible;visibility:visible;opacity:1;isolation:auto;mix-blend-mode:normal;color-interpolation:sRGB;color-interpolation-filters:linearRGB;solid-color:#000000;solid-opacity:1;vector-effect:none;fill:#000000;fill-opacity:1;fill-rule:nonzero;stroke:none;stroke-width:1;stroke-linecap:butt;stroke-linejoin:miter;stroke-miterlimit:4;stroke-dasharray:none;stroke-dashoffset:0;stroke-opacity:1;color-rendering:auto;image-rendering:auto;shape-rendering:auto;text-rendering:auto;enable-background:accumulate;stop-color:#000000;stop-opacity:1"
               d="m 16,23 c -0.552285,0 -1,-0.447715 -1,-1 V 10 c 0,-1.3333328 2,-1.3333328 2,0 v 12 c 0,0.552285 -0.447715,1 -1,1 z"
               id="path123" /><path
               style="color:#000000;font-style:normal;font-variant:normal;font-weight:normal;font-stretch:normal;font-size:medium;line-height:normal;font-family:sans-serif;font-variant-ligatures:normal;font-variant-position:normal;font-variant-caps:normal;font-variant-numeric:normal;font-variant-alternates:normal;font-variant-east-asian:normal;font-feature-settings:normal;font-variation-settings:normal;text-indent:0;text-align:start;text-decoration:none;text-decoration-line:none;text-decoration-style:solid;text-decoration-color:#000000;letter-spacing:normal;word-spacing:normal;text-transform:none;writing-mode:lr-tb;direction:ltr;text-orientation:mixed;dominant-baseline:auto;baseline-shift:baseline;text-anchor:start;white-space:normal;shape-padding:0;shape-margin:0;inline-size:0;clip-rule:nonzero;display:inline;overflow:visible;visibility:visible;opacity:1;isolation:auto;mix-blend-mode:normal;color-interpolation:sRGB;color-interpolation-filters:linearRGB;solid-color:#000000;solid-opacity:1;vector-effect:none;fill:#000000;fill-opacity:1;fill-rule:nonzero;stroke:none;stroke-width:1;stroke-linecap:butt;stroke-linejoin:miter;stroke-miterlimit:4;stroke-dasharray:none;stroke-dashoffset:0;stroke-opacity:1;color-rendering:auto;image-rendering:auto;shape-rendering:auto;text-rendering:auto;enable-background:accumulate;stop-color:#000000;stop-opacity:1"
               d="M 22,17 H 10 c -1.3333328,0 -1.3333328,-2 0,-2 h 12 c 1.333333,0 1.333333,2 0,2 z"
               id="path125" /></g><g
             id="frame"><g
               id="g362" /><g
               id="g162" /><path
               id="rect128"
               style="fill:none"
               d="M 0,0 H 32 V 32 H 0 Z"
               class="cls-1" /></g></g></g></g></g></g></svg>
