<?xml version="1.0" encoding="UTF-8" standalone="no"?>
<svg
   xmlns:dc="http://purl.org/dc/elements/1.1/"
   xmlns:cc="http://creativecommons.org/ns#"
   xmlns:rdf="http://www.w3.org/1999/02/22-rdf-syntax-ns#"
   xmlns:svg="http://www.w3.org/2000/svg"
   xmlns="http://www.w3.org/2000/svg"
   xmlns:sodipodi="http://sodipodi.sourceforge.net/DTD/sodipodi-0.dtd"
   xmlns:inkscape="http://www.inkscape.org/namespaces/inkscape"
   width="717.19574"
   height="84.92308"
   viewBox="0 0 189.75804 22.469233"
   version="1.1"
   id="svg8"
   inkscape:version="1.0.2 (1.0.2+r75+1)"
   sodipodi:docname="logo.svg">
  <defs
     id="defs2" />
  <sodipodi:namedview
     id="base"
     pagecolor="#ffffff"
     bordercolor="#666666"
     borderopacity="1.0"
     inkscape:pageopacity="0.0"
     inkscape:pageshadow="2"
     inkscape:zoom="1.0265227"
     inkscape:cx="447.57498"
     inkscape:cy="164.53933"
     inkscape:document-units="px"
     inkscape:current-layer="layer1"
     inkscape:document-rotation="0"
     showgrid="false"
     inkscape:window-width="1366"
     inkscape:window-height="704"
     inkscape:window-x="0"
     inkscape:window-y="27"
     inkscape:window-maximized="1"
     fit-margin-top="0"
     fit-margin-left="0"
     fit-margin-right="0"
     fit-margin-bottom="0"
     showborder="true"
     borderlayer="false"
     units="px" />
  <metadata
     id="metadata5">
    <rdf:RDF>
      <cc:Work
         rdf:about="">
        <dc:format>image/svg+xml</dc:format>
        <dc:type
           rdf:resource="http://purl.org/dc/dcmitype/StillImage" />
        <dc:title></dc:title>
      </cc:Work>
    </rdf:RDF>
  </metadata>
  <g
     inkscape:label="MOUNTAINS"
     inkscape:groupmode="layer"
     id="g850" />
  <g
     inkscape:groupmode="layer"
     id="layer1"
     inkscape:label="LETTERS">
    <g
       aria-label="B  CQPACK"
       id="text66"
       style="font-size:28.2222px;line-height:0;font-family:exarros;-inkscape-font-specification:exarros;word-spacing:-0.0502708px;fill:#4f95fc;fill-opacity:1;stroke-width:0.264583">
      <path
         id="path95"
         style="font-size:28.2222px;fill:#4f95fc;fill-opacity:1;stroke-width:0.264583"
         d="m 189.35487,20.126789 q 0.56444,0.423333 0.33866,1.100666 -0.22577,0.677333 -0.93133,0.677333 h -15.77621 q -0.39511,0 -0.70555,-0.282222 -0.28223,-0.282222 -0.28223,-0.677333 V 3.4474688 q 0,-0.3951108 0.28223,-0.6773328 0.31044,-0.282222 0.70555,-0.282222 0.42333,0 0.70556,0.282222 0.28222,0.282222 0.28222,0.6773328 V 19.957456 h 11.79688 l -9.84955,-7.224883 q -0.39511,-0.282222 -0.42333,-0.762 0,-0.507999 0.39511,-0.818443 l 10.78088,-8.4948828 q 0.33867,-0.2257776 0.73378,-0.1693332 0.39511,0.028222 0.64911,0.3668886 0.254,0.3104442 0.19755,0.705555 -0.0282,0.3951109 -0.36689,0.6491107 l -9.76488,7.7046607 z m -24.92019,-2.06022 q 0.31044,-0.282222 0.70555,-0.282222 0.39511,0 0.67734,0.310444 0.31044,0.282222 0.28222,0.705555 0,0.395111 -0.28222,0.677333 -1.524,1.467554 -3.47134,2.229553 -1.94733,0.762 -4.00755,0.762 -2.08844,0 -4.06399,-0.762 -1.94734,-0.790221 -3.47134,-2.285998 -1.49577,-1.495776 -2.28599,-3.386664 -0.79023,-1.919109 -0.79023,-4.007552 0,-1.015999 0.19756,-2.0319987 0.22578,-1.0159992 0.62089,-1.9473318 0.39511,-0.9313326 0.98778,-1.7779986 0.59266,-0.846666 1.32644,-1.5804432 2.06022,-1.9755541 4.79777,-2.6811091 2.73756,-0.705555 5.44689,0.028222 2.73755,0.705555 4.76955,2.7093313 0.28222,0.282222 0.28222,0.705555 0,0.3951108 -0.28222,0.705555 -0.28222,0.282222 -0.70556,0.282222 -0.39511,0 -0.67733,-0.282222 -2.54,-2.5117759 -6.12422,-2.5117759 -3.58422,-0.028222 -6.12421,2.4553315 -2.54,2.4553314 -2.56822,5.9548845 0,3.471331 2.51177,5.954884 2.51178,2.483554 6.096,2.511776 3.61244,0 6.15244,-2.455331 z m -20.48928,2.483553 q 0.22577,0.479778 -0.0847,0.931333 -0.28222,0.451555 -0.81845,0.451555 h -10.07532 q -0.39511,0 -0.70556,-0.282222 -0.28222,-0.310444 -0.28222,-0.705555 0,-0.423333 0.28222,-0.705555 0.31045,-0.282222 0.70556,-0.282222 h 8.57955 l -6.2653,-14.1111001 -7.05555,15.4939881 q -0.254,0.592666 -0.90311,0.592666 -0.19756,0 -0.39511,-0.08467 -0.36689,-0.169334 -0.508,-0.536222 -0.14111,-0.395111 0.0282,-0.790222 l 7.95866,-17.469542 q 0.254,-0.5926662 0.90311,-0.5926662 0.62089,0 0.90311,0.5926662 z M 114.8201,2.4596918 q 3.21734,0 5.50333,2.0884429 2.286,2.0602206 2.286,4.9953294 0,2.9351089 -2.286,5.0235519 -2.28599,2.088443 -5.50333,2.088443 h -7.22488 v 4.23333 q 0,0.197555 -0.0847,0.39511 -0.0564,0.169334 -0.19755,0.310445 -0.11289,0.141111 -0.31045,0.225777 -0.16933,0.05645 -0.36688,0.05645 -0.42334,0 -0.70556,-0.282222 -0.28222,-0.282222 -0.28222,-0.705555 l -0.0282,-5.221107 q 0,-0.423333 0.28222,-0.705555 0.31044,-0.282222 0.70555,-0.282222 h 8.21266 q 2.42711,0 4.12045,-1.495777 1.72155,-1.523999 1.72155,-3.6406639 0,-2.116665 -1.72155,-3.6124416 -1.69334,-1.5239988 -4.12045,-1.5239988 h -7.22488 v 6.0113283 q 0,0.395111 -0.28222,0.677333 -0.28222,0.282222 -0.70556,0.282222 -0.39511,0 -0.70555,-0.282222 -0.28222,-0.282222 -0.28222,-0.677333 V 3.4192466 q 0,-0.3951108 0.28222,-0.6773328 0.31044,-0.282222 0.70555,-0.282222 z M 92.129477,19.872789 q 0.39511,-0.141111 0.761999,0.02822 0.366889,0.141111 0.508,0.536221 0.169333,0.366889 0,0.733778 -0.141111,0.366888 -0.536222,0.536221 -1.834443,0.733778 -3.83822,0.733778 -2.088442,0 -4.007552,-0.818444 -1.91911,-0.818444 -3.301997,-2.201332 -1.382888,-1.382888 -2.201332,-3.301997 -0.818444,-1.91911 -0.818444,-4.035775 0,-2.8222199 1.382888,-5.1928847 1.382888,-2.398887 3.753553,-3.7817749 2.398887,-1.3828878 5.192884,-1.3828878 2.088443,0 4.007553,0.8184438 1.91911,0.8184438 3.301997,2.2295539 1.382888,1.3828878 2.201332,3.3019974 0.818444,1.8908874 0.818444,4.0075523 0,1.834443 -0.620889,3.527775 -0.141111,0.395111 -0.507999,0.564444 -0.366889,0.169333 -0.762,0.02822 -0.366888,-0.141111 -0.536221,-0.507999 -0.169334,-0.366889 -0.02822,-0.733777 0.508,-1.382888 0.508,-2.878665 0,-1.693332 -0.677333,-3.2455529 Q 96.080588,7.2574609 94.9517,6.1567951 93.822812,5.0279071 92.270591,4.3787965 90.718369,3.7014636 89.025037,3.7014636 q -3.47133,0 -5.926662,2.4553315 -2.455331,2.4553314 -2.455331,5.9266619 0,3.471331 2.455331,5.926662 2.455332,2.455332 5.926662,2.455332 1.636888,0 3.104443,-0.592667 z m 6.970883,0.874889 q 0.310444,0.282222 0.310444,0.705555 0,0.395111 -0.282222,0.677333 -0.282222,0.310444 -0.705555,0.310444 -0.395111,0 -0.677333,-0.282222 l -9.397992,-9.172215 q -0.310445,-0.282222 -0.310445,-0.677333 0,-0.423333 0.282222,-0.705555 0.282222,-0.282222 0.677333,-0.282222 0.423333,-0.02822 0.705555,0.254 z M 72.543282,18.066569 q 0.310444,-0.282222 0.705555,-0.282222 0.39511,0 0.677332,0.310444 0.310445,0.282222 0.282222,0.705555 0,0.395111 -0.282222,0.677333 -1.523998,1.467554 -3.47133,2.229553 -1.947332,0.762 -4.007553,0.762 -2.088442,0 -4.063996,-0.762 -1.947332,-0.790221 -3.471331,-2.285998 -1.495777,-1.495776 -2.285998,-3.386664 -0.790222,-1.919109 -0.790222,-4.007552 0,-1.015999 0.197555,-2.0319987 0.225778,-1.0159992 0.620889,-1.9473318 0.395111,-0.9313326 0.987777,-1.7779986 0.592666,-0.846666 1.326443,-1.5804432 2.060221,-1.9755541 4.797774,-2.6811091 2.737554,-0.705555 5.446885,0.028222 2.737553,0.705555 4.769552,2.7093313 0.282222,0.282222 0.282222,0.705555 0,0.3951108 -0.282222,0.705555 -0.282222,0.282222 -0.705555,0.282222 -0.395111,0 -0.677333,-0.282222 -2.539998,-2.5117759 -6.124217,-2.5117759 -3.58422,-0.028222 -6.124218,2.4553315 -2.539998,2.4553314 -2.56822,5.9548845 0,3.471331 2.511776,5.954884 2.511776,2.483554 6.095995,2.511776 3.612442,0 6.15244,-2.455331 z m -58.206404,-6.40644 q 1.495776,0.620889 2.398887,1.975554 0.931332,1.326444 0.931332,2.935109 0,2.229554 -1.608665,3.809997 -1.608665,1.552221 -3.866441,1.552221 H 0.987777 q -0.3951108,0 -0.70555501,-0.282222 Q -1.1444092e-8,21.340344 -1.1444092e-8,20.945233 v -5.64444 q 0,-0.395111 0.282222001444092,-0.677333 0.31044421,-0.310444 0.70555501,-0.310444 0.423333,0 0.705555,0.310444 0.282222,0.282222 0.282222,0.677333 v 4.656663 h 10.216437 q 1.439332,0 2.455331,-0.987777 1.044221,-0.987777 1.044221,-2.398887 0,-0.90311 -0.479777,-1.66511 -0.451555,-0.790221 -1.269999,-1.241777 -0.790222,-0.479777 -1.749776,-0.479777 H 7.3095499 l -0.564444,0.02822 h -0.028222 q -0.141111,0 -0.3104442,-0.05644 -0.141111,-0.05645 -0.2539998,-0.141111 -0.1128888,-0.08467 -0.2257776,-0.197556 -0.084667,-0.141111 -0.141111,-0.282222 -0.028222,-0.141111 -0.056444,-0.310444 0,-0.395111 0.282222,-0.677333 0.282222,-0.310444 0.705555,-0.310444 h 0.056444 q 0.028222,0 0.028222,0 0.028222,0 0.028222,0 h 0.4515552 l 3.2737755,-0.05644 q 1.467554,0 2.483554,-0.987777 1.015999,-0.9877773 1.015999,-2.3706651 0,-1.41111 -1.015999,-2.398887 -1.016,-0.987777 -2.483554,-0.987777 H 2.0037762 v 4.4591076 q 0,0.3951108 -0.3104442,0.6773328 -0.282222,0.282222 -0.705555,0.282222 -0.3951108,0 -0.67733281,-0.282222 -0.282222,-0.282222 -0.282222,-0.6773328 V 3.4474688 q 0,-0.3951108 0.282222,-0.6773328 Q 0.5926662,2.4596918 1.0159992,2.4596918 h 9.5391038 q 1.495777,0 2.737553,0.7337772 1.269999,0.705555 2.003777,1.9473319 0.733777,1.2135546 0.733777,2.681109 0,2.2577761 -1.693332,3.8382191 z m 41.238905,10.573968 -17.554554,0.09638 8.684892,-13.7830887 z m -5.41591,9.54e-4 L 25.229262,22.391623 37.563364,4.6788364e-8 Z M 38.021232,22.330475 18.862354,22.45284 28.340965,4.9532889 Z" />
    </g>
  </g>
</svg>
